<svg width="124" height="23" viewBox="0 0 124 23" fill="none" xmlns="http://www.w3.org/2000/svg">
<path d="M0 0H9.09077C10.8223 0 12.121 0.434874 13.083 1.15966C14.1412 2.02941 14.7184 3.28571 14.7184 4.83193C14.7184 6.61975 13.9969 7.73109 12.5539 8.40756V8.5042C14.4779 9.13235 15.5842 10.8718 15.5842 12.9496C15.5842 14.9307 14.8146 16.4769 13.564 17.4433C12.5058 18.2164 11.159 18.5546 9.33126 18.5546H0V0ZM8.17688 7.2479C9.13887 7.2479 9.86036 6.71639 9.86036 5.60504C9.86036 4.54202 9.13887 4.0105 8.12878 4.0105H5.00233V7.19958H8.17688V7.2479ZM8.60977 14.4475C9.71606 14.4475 10.5337 13.771 10.5337 12.563C10.5337 11.2584 9.66796 10.6786 8.60977 10.6786H5.05043V14.4958H8.60977V14.4475Z" fill="#6E6F83"/>
<path d="M16.4019 0H21.1637V18.6029H16.4019V0Z" fill="#6E6F83"/>
<path d="M22.1257 11.9831C22.1257 7.77933 24.8192 4.97681 29.0039 4.97681C33.1885 4.97681 35.834 7.82765 35.834 11.9831C35.834 16.1869 33.1885 18.9894 29.0039 18.9894C24.8192 18.9894 22.1257 16.1869 22.1257 11.9831ZM31.0721 11.9831C31.0721 9.66378 30.3507 8.2142 28.9077 8.2142C27.4647 8.2142 26.7913 9.66378 26.7913 11.9831C26.7913 14.3024 27.4647 15.8003 28.9077 15.8003C30.3507 15.752 31.0721 14.3024 31.0721 11.9831Z" fill="#6E6F83"/>
<path d="M36.3631 11.9831C36.3631 7.77933 39.0567 4.97681 43.2413 4.97681C47.4259 4.97681 50.0233 7.77933 50.0233 11.9831C50.0233 16.1869 47.3778 18.9894 43.1932 18.9894C39.0567 18.9894 36.3631 16.1869 36.3631 11.9831ZM45.3096 11.9831C45.3096 9.66378 44.5881 8.2142 43.1451 8.2142C41.7021 8.2142 41.0287 9.66378 41.0287 11.9831C41.0287 14.3024 41.7021 15.8003 43.1451 15.8003C44.5881 15.752 45.3096 14.3024 45.3096 11.9831Z" fill="#6E6F83"/>
<path d="M50.9852 5.31527H55.4104V7.29636H55.5066C56.3723 5.75014 57.5748 4.92871 59.4988 4.92871C61.1823 4.92871 62.4329 5.75014 63.0582 7.19972H63.1544C64.2125 5.46022 65.6074 4.92871 67.2428 4.92871C70.3212 4.92871 71.6198 7.19972 71.6198 10.2438V18.5548H67.0023V11.0653C67.0023 9.71232 66.5694 8.84258 65.415 8.84258C64.2606 8.84258 63.6834 9.9056 63.6834 11.3552V18.5548H59.0659V11.0653C59.0659 9.71232 58.633 8.84258 57.4786 8.84258C56.3243 8.84258 55.7471 9.9056 55.7471 11.3552V18.5548H50.9852V5.31527Z" fill="#6E6F83"/>
<path d="M77.4399 16.8151H77.3918V18.5546H72.9667V0H77.5842V6.66807H77.6804C78.5462 5.5084 79.7487 4.88025 81.4321 4.88025C84.751 4.88025 86.675 7.87605 86.675 11.8866C86.675 16.3803 84.6067 18.9895 81.1436 18.9895C79.7006 18.9895 78.2095 18.313 77.4399 16.8151ZM81.9131 11.8382C81.9131 9.71219 81.1435 8.31093 79.7487 8.31093C78.3057 8.31093 77.4399 9.71219 77.4399 11.8382C77.4399 13.9643 78.3538 15.3655 79.7487 15.3655C81.1435 15.3655 81.9131 14.0126 81.9131 11.8382Z" fill="#6E6F83"/>
<path d="M87.204 11.935C87.204 7.77955 89.9457 4.92871 93.8899 4.92871C95.8619 4.92871 97.353 5.55686 98.5074 6.66821C100.047 8.16611 100.72 10.4854 100.672 13.1913H91.8216C92.014 14.8342 92.7836 15.7039 94.1784 15.7039C94.9961 15.7039 95.7176 15.3174 96.0062 14.4476H100.479C99.7099 17.4917 97.353 18.9896 94.0341 18.9896C89.9457 18.9413 87.204 16.1388 87.204 11.935ZM91.8216 10.5338H96.0543C95.9581 8.93922 95.0923 8.11779 93.986 8.11779C92.6874 8.06947 91.9659 8.98753 91.8216 10.5338Z" fill="#6E6F83"/>
<path d="M105.915 7.58632H106.011C106.973 5.75018 108.223 5.02539 109.811 5.02539C110.195 5.02539 110.436 5.07371 110.58 5.17035V9.22917H110.484C107.742 8.74598 106.155 10.0506 106.155 13.0464V18.6031H101.49V5.31531H105.915V7.58632Z" fill="#6E6F83"/>
<path d="M111.061 18.6028H115.535C115.727 19.1827 116.304 19.7142 117.41 19.7142C118.901 19.7142 119.431 18.7961 119.431 17.3948V16.4284H119.334C118.613 17.2982 117.603 17.9263 116.16 17.9263C113.322 17.9263 110.821 15.8003 110.821 11.6448C110.821 7.82761 112.841 4.88013 115.919 4.88013C117.699 4.88013 118.757 5.60492 119.479 6.71626H119.575V5.26668H124V16.7667C124 18.8927 123.279 20.5356 122.172 21.502C121.018 22.5167 119.382 22.9516 117.507 22.9516C113.947 22.9999 111.494 21.5503 111.061 18.6028ZM119.623 11.4516C119.623 9.8087 118.853 8.45576 117.507 8.45576C116.208 8.45576 115.39 9.61542 115.39 11.4516C115.39 13.2394 116.208 14.4957 117.507 14.4957C118.805 14.4957 119.623 13.1911 119.623 11.4516Z" fill="#6E6F83"/>
</svg>
