<svg width="170" height="27" viewBox="0 0 170 27" fill="none" xmlns="http://www.w3.org/2000/svg">
<g clip-path="url(#clip0_122_524)">
<path d="M13.6798 24.3885C11.0657 24.3895 8.53608 23.4753 6.54099 21.8084C4.54591 20.1415 3.21478 17.8301 2.78448 15.2856C2.35418 12.741 2.85262 10.1284 4.19109 7.91246C5.52957 5.69655 7.62127 4.02115 10.094 3.18438C12.5667 2.34762 15.2601 2.40376 17.6948 3.34282C20.1295 4.28189 22.1476 6.04296 23.3901 8.31266C24.6326 10.5824 25.0188 13.2135 24.48 15.7378C23.9412 18.2622 22.5124 20.516 20.4477 22.0983H24.2237C26.4482 19.447 27.5647 16.0584 27.3456 12.623C27.1265 9.18765 25.5884 5.96394 23.0447 3.6088C20.5009 1.25365 17.1429 -0.0557095 13.6549 -0.0524843C10.167 -0.0492591 6.81147 1.26631 4.27219 3.62615C1.7329 5.986 0.200912 9.21254 -0.011624 12.6483C-0.22416 16.0841 0.898753 19.4706 3.12831 22.1178C5.35786 24.7649 8.52628 26.4735 11.988 26.8954C15.4496 27.3174 18.9441 26.4208 21.7592 24.3885H13.6798Z" fill="#6E6F83"/>
<path d="M19.8417 19.5809C23.2452 16.2221 23.2452 10.7764 19.8417 7.41765C16.4382 4.05886 10.9201 4.05886 7.51665 7.41765C4.11318 10.7764 4.11318 16.2221 7.51665 19.5809C10.9201 22.9397 16.4382 22.9397 19.8417 19.5809Z" fill="#6E6F83"/>
<path d="M16.9349 16.8145C16.2749 17.4461 15.441 17.8719 14.5373 18.0387C13.6335 18.2054 12.7001 18.1057 11.8534 17.7521C11.0067 17.3985 10.2844 16.8065 9.77654 16.0502C9.2687 15.2939 8.99787 14.4066 8.99787 13.4993C8.99787 12.592 9.2687 11.7048 9.77654 10.9485C10.2844 10.1922 11.0067 9.60022 11.8534 9.24658C12.7001 8.89294 13.6335 8.79328 14.5373 8.96002C15.441 9.12677 16.2749 9.55254 16.9349 10.1842L18.5441 8.77757C17.6021 7.83277 16.3984 7.18341 15.084 6.91091C13.7695 6.6384 12.4028 6.75487 11.1552 7.24572C9.90757 7.73657 8.8345 8.57995 8.07054 9.67014C7.30658 10.7603 6.8857 12.0488 6.86068 13.3741C6.83566 14.6994 7.2076 16.0024 7.92989 17.1199C8.65217 18.2375 9.69265 19.1197 10.9209 19.6561C12.1491 20.1925 13.5105 20.3591 14.8343 20.1351C16.1581 19.9111 17.3855 19.3064 18.3625 18.3969L16.9349 16.8145Z" fill="#6E6F83"/>
<path d="M54.4322 4.89917C52.8285 4.89917 51.2609 5.36846 49.9275 6.24771C48.5941 7.12696 47.5549 8.37666 46.9412 9.83879C46.3275 11.3009 46.1669 12.9098 46.4798 14.462C46.7926 16.0142 47.5649 17.44 48.6988 18.559C49.8328 19.6781 51.2775 20.4402 52.8504 20.7489C54.4232 21.0577 56.0535 20.8992 57.5351 20.2936C59.0166 19.688 60.283 18.6624 61.1739 17.3465C62.0649 16.0306 62.5404 14.4835 62.5404 12.9009C62.5404 10.7787 61.6861 8.74345 60.1656 7.24283C58.645 5.74221 56.5826 4.89917 54.4322 4.89917ZM54.4322 17.2716C53.5562 17.2716 52.7 17.0153 51.9717 16.535C51.2433 16.0548 50.6757 15.3722 50.3405 14.5735C50.0053 13.7749 49.9176 12.8961 50.0885 12.0483C50.2593 11.2004 50.6812 10.4216 51.3005 9.8104C51.9199 9.19914 52.7091 8.78288 53.5682 8.61423C54.4273 8.44559 55.3178 8.53214 56.127 8.86295C56.9363 9.19376 57.628 9.75396 58.1146 10.4727C58.6013 11.1915 58.861 12.0365 58.861 12.9009C58.861 14.0601 58.3944 15.1718 57.5638 15.9915C56.7333 16.8111 55.6068 17.2716 54.4322 17.2716Z" fill="#6E6F83"/>
<path d="M131.138 4.89917C129.535 4.89917 127.967 5.36846 126.634 6.24771C125.3 7.12696 124.261 8.37666 123.647 9.83879C123.034 11.3009 122.873 12.9098 123.186 14.462C123.499 16.0142 124.271 17.44 125.405 18.559C126.539 19.6781 127.984 20.4402 129.556 20.7489C131.129 21.0577 132.76 20.8992 134.241 20.2936C135.723 19.688 136.989 18.6624 137.88 17.3465C138.771 16.0306 139.246 14.4835 139.246 12.9009C139.246 10.7787 138.392 8.74345 136.872 7.24283C135.351 5.74221 133.289 4.89917 131.138 4.89917ZM131.138 17.2716C130.262 17.2716 129.406 17.0153 128.678 16.535C127.949 16.0548 127.382 15.3722 127.047 14.5735C126.711 13.7749 126.624 12.8961 126.795 12.0483C126.965 11.2004 127.387 10.4216 128.007 9.8104C128.626 9.19914 129.415 8.78288 130.274 8.61423C131.133 8.44559 132.024 8.53214 132.833 8.86295C133.642 9.19376 134.334 9.75396 134.821 10.4727C135.307 11.1915 135.567 12.0365 135.567 12.9009C135.567 14.0601 135.1 15.1718 134.27 15.9915C133.439 16.8111 132.313 17.2716 131.138 17.2716Z" fill="#6E6F83"/>
<path d="M103.814 17.7027C104.908 16.2642 105.48 14.5037 105.436 12.7052C105.392 10.9068 104.736 9.17531 103.573 7.79021C102.41 6.40512 100.808 5.44718 99.0249 5.07099C97.2423 4.6948 95.3833 4.92229 93.7478 5.71676C92.1123 6.51122 90.7957 7.82632 90.0106 9.44984C89.2254 11.0734 89.0174 12.9106 89.4201 14.6651C89.8229 16.4196 90.8129 17.989 92.2304 19.1201C93.6479 20.2512 95.4102 20.878 97.233 20.8993H105.969V17.7004L103.814 17.7027ZM92.8995 12.9009C92.8995 12.0365 93.1593 11.1915 93.6459 10.4727C94.1326 9.75395 94.8243 9.19375 95.6335 8.86294C96.4428 8.53213 97.3333 8.44558 98.1924 8.61423C99.0515 8.78287 99.8407 9.19914 100.46 9.81039C101.079 10.4216 101.501 11.2004 101.672 12.0482C101.843 12.8961 101.755 13.7749 101.42 14.5735C101.085 15.3722 100.517 16.0548 99.7889 16.535C99.0606 17.0153 98.2043 17.2716 97.3284 17.2716C96.1538 17.2716 95.0273 16.8111 94.1967 15.9915C93.3662 15.1718 92.8995 14.0601 92.8995 12.9009Z" fill="#6E6F83"/>
<path d="M80.2752 5.42773V14.7125L74.1831 5.42773H70.4692V20.3729H74.1831V11.0893L80.2752 20.3729H83.9902V5.42773H80.2752Z" fill="#6E6F83"/>
<path d="M117.529 5.18164V14.0659C117.537 14.4922 117.459 14.9158 117.299 15.312C117.139 15.7081 116.901 16.0689 116.599 16.3732C116.296 16.6775 115.935 16.9192 115.537 17.0842C115.138 17.2492 114.711 17.3342 114.279 17.3342C113.847 17.3342 113.419 17.2492 113.021 17.0842C112.622 16.9192 112.261 16.6775 111.959 16.3732C111.656 16.0689 111.418 15.7081 111.258 15.312C111.099 14.9158 111.021 14.4922 111.029 14.0659V5.18164H107.222V13.94C107.222 15.7863 107.965 17.557 109.288 18.8626C110.611 20.1681 112.405 20.9016 114.276 20.9016C116.147 20.9016 117.941 20.1681 119.264 18.8626C120.587 17.557 121.33 15.7863 121.33 13.94V5.18164H117.529Z" fill="#6E6F83"/>
<path d="M153.903 10.4689V10.1513C153.903 9.4986 153.773 8.85231 153.52 8.2493C153.267 7.64629 152.896 7.09838 152.429 6.63688C151.961 6.17538 151.406 5.80932 150.795 5.55963C150.184 5.30993 149.529 5.18149 148.867 5.18164H141.152V20.373H145.01V15.4385H147.3L149.69 20.373H153.547L150.943 14.9961C151.826 14.6024 152.574 13.9659 153.099 13.1629C153.624 12.3599 153.903 11.4245 153.903 10.4689ZM150.117 10.5392C150.117 10.803 150.064 11.0643 149.962 11.308C149.86 11.5517 149.71 11.7732 149.521 11.9598C149.332 12.1463 149.107 12.2943 148.86 12.3952C148.613 12.4962 148.349 12.5482 148.081 12.5482H144.863V8.53027H148.081C148.349 8.53027 148.613 8.58223 148.86 8.68319C149.107 8.78415 149.332 8.93213 149.521 9.11867C149.71 9.30522 149.86 9.52669 149.962 9.77042C150.064 10.0142 150.117 10.2754 150.117 10.5392Z" fill="#6E6F83"/>
<path d="M166.571 20.373H170.001L163.899 5.37108L163.823 5.18164H160.546L160.47 5.37108L154.368 20.373H157.797L159.062 17.2716H165.314L166.571 20.373ZM160.077 14.7692L162.185 9.58635L164.293 14.7692H160.077Z" fill="#6E6F83"/>
<path d="M68.2911 5.42773H64.576V20.3729H68.2911V5.42773Z" fill="#6E6F83"/>
<path d="M45.3721 15.7538C44.3445 16.8133 42.7594 17.4939 40.9789 17.4939C37.8823 17.4939 35.6018 15.4374 35.6018 12.9009C35.6018 10.3645 37.8823 8.30678 40.9789 8.30678C42.7594 8.30678 44.3445 8.98739 45.3721 10.0469V6.38064C43.8523 5.29437 42.0221 4.71246 40.1456 4.7188C35.365 4.7188 31.4902 8.38164 31.4902 12.9009C31.4902 17.4202 35.365 21.0819 40.1456 21.0819C42.0219 21.0881 43.8519 20.5067 45.3721 19.4212V15.7538Z" fill="#6E6F83"/>
</g>
<defs>
<clipPath id="clip0_122_524">
<rect width="170" height="27" fill="white"/>
</clipPath>
</defs>
</svg>
