<svg width="178" height="31" viewBox="0 0 178 31" fill="none" xmlns="http://www.w3.org/2000/svg">
<path d="M26.221 18.5339C25.6871 18.8643 25.0642 18.9244 24.5896 18.6541C23.9963 18.2936 23.6404 17.4826 23.6404 16.3711V12.9767C23.6404 11.3547 23.0175 10.1831 21.9497 9.88275C20.1403 9.34205 18.7759 11.595 18.2716 12.436L15.0682 17.6328V11.2345C15.0385 9.76259 14.5639 8.89148 13.6741 8.62113C13.0808 8.44089 12.191 8.53101 11.3308 9.85272L4.1823 21.4477C3.23313 19.6153 2.72888 17.5727 2.72888 15.5C2.72888 8.50097 8.27562 2.82364 15.0682 2.82364C21.8607 2.82364 27.4074 8.50097 27.4074 15.5V15.53V15.5601C27.4668 16.9118 27.0515 17.9932 26.221 18.5339ZM30.1363 15.5V15.47V15.4399C30.1067 6.93895 23.3438 0 15.0682 0C6.76287 0 0 6.93895 0 15.5C0 24.031 6.76287 31 15.0682 31C18.8945 31 22.5133 29.5281 25.3015 26.8546C25.865 26.3139 25.8947 25.4428 25.3608 24.8721C24.8565 24.3014 23.9963 24.2713 23.4328 24.782C23.4328 24.782 23.4328 24.782 23.4031 24.812C21.1488 26.9748 18.1233 28.2064 15.0088 28.2064C11.3604 28.2064 8.09765 26.5843 5.84336 24.001L12.28 13.5475V18.3837C12.28 20.6967 13.1698 21.4477 13.9113 21.6579C14.6529 21.8682 15.78 21.718 16.9962 19.7655L20.5259 13.968C20.6446 13.7878 20.7335 13.6076 20.8522 13.4874V16.4312C20.8522 18.594 21.7124 20.3362 23.1955 21.1773C24.5302 21.9583 26.221 21.8682 27.6151 20.9971C29.3354 19.8556 30.255 17.8731 30.1363 15.5ZM51.1368 10.2132C51.4928 10.4234 51.819 10.9341 51.819 11.3847C51.819 12.1056 51.2258 12.7064 50.5436 12.7064C50.3656 12.7064 50.2173 12.6463 50.069 12.6163C49.2681 12.0155 48.2596 11.625 47.1918 11.625C44.6706 11.625 42.9502 13.6977 42.9502 16.281C42.9502 18.8643 44.7002 20.907 47.1918 20.907C48.4376 20.907 49.5647 20.3963 50.3953 19.5853C50.6029 19.4351 50.8699 19.345 51.1368 19.345C51.819 19.345 52.3529 19.8857 52.3529 20.5765C52.3529 21.0271 52.086 21.4176 51.7597 21.6279C50.5436 22.6793 48.9122 23.3702 47.2215 23.3702C43.3654 23.3702 40.2213 20.156 40.2213 16.1909C40.2213 12.2258 43.3654 9.01163 47.2215 9.01163C48.6452 8.98159 50.0097 9.43217 51.1368 10.2132ZM58.1963 13.2171C60.8362 13.2171 63.0312 15.47 63.0312 18.2636C63.0312 21.0271 60.8065 23.4002 58.1963 23.4002C55.4378 23.4002 53.1538 21.0572 53.1538 18.2636C53.1538 15.47 55.4378 13.2171 58.1963 13.2171ZM58.1666 20.907C59.3234 20.907 60.3023 19.7955 60.3023 18.2936C60.3023 16.7917 59.3234 15.8304 58.1666 15.8304C56.9208 15.8304 55.8827 16.7616 55.8827 18.2936C55.8827 19.7655 56.9208 20.907 58.1666 20.907ZM64.6922 21.8382V14.749C64.6922 13.968 65.2855 13.3372 66.0567 13.3372C66.7982 13.3372 67.4211 13.968 67.4211 14.749V21.8382C67.4211 22.6192 66.7982 23.25 66.0567 23.25C65.3151 23.25 64.6922 22.5891 64.6922 21.8382ZM64.4846 10.6638C64.4846 9.73256 65.1965 9.01163 66.0567 9.01163C66.9465 9.01163 67.6584 9.7626 67.6584 10.6638C67.6584 11.5649 66.9465 12.2858 66.0567 12.2858C65.1668 12.2558 64.4846 11.5349 64.4846 10.6638ZM72.6416 17.9932V21.8382C72.6416 22.6192 72.0187 23.25 71.2771 23.25C70.5356 23.25 69.9127 22.6192 69.9127 21.8382V14.4186C69.9127 13.8178 70.3873 13.3372 70.9805 13.3372C71.5737 13.3372 72.0187 13.8479 72.0187 14.4186C73.1161 13.3672 74.095 13.2171 75.0145 13.2171C77.7434 13.2171 78.9595 15.2897 78.9595 17.6628V21.8382C78.9595 22.6192 78.3366 23.25 77.5951 23.25C76.8535 23.25 76.2306 22.6192 76.2306 21.8382V17.9932C76.2306 16.7917 76.0823 15.7703 74.3619 15.7703C73.1458 15.7703 72.6416 16.7917 72.6416 17.9932ZM87.7987 19.4651C87.4724 19.4651 87.2648 19.3149 87.0868 19.1047L83.913 15.6202V21.8382C83.913 22.6192 83.2901 23.25 82.5486 23.25C81.807 23.25 81.1841 22.6192 81.1841 21.8382V9.52229C81.2731 9.31202 81.4808 9.16182 81.6884 9.16182C81.9257 9.16182 82.1333 9.3721 82.2816 9.52229L87.3538 15.2897C87.5021 15.47 87.6801 15.5601 87.7987 15.5601C87.8877 15.5601 88.0953 15.47 88.2436 15.2897L93.3158 9.52229C93.4641 9.3721 93.6421 9.16182 93.909 9.16182C94.1463 9.16182 94.3539 9.31202 94.4133 9.52229V21.8382C94.4133 22.6192 93.82 23.25 93.0488 23.25C92.3073 23.25 91.6844 22.6192 91.6844 21.8382V15.6202L88.5106 19.1047C88.2733 19.3149 88.0657 19.4651 87.7987 19.4651ZM100.909 20.907C102.125 20.907 103.163 19.7955 103.163 18.2936C103.163 16.7917 102.096 15.8004 100.909 15.8004C99.7227 15.8004 98.7439 16.8217 98.7439 18.2936C98.7439 19.7355 99.693 20.907 100.909 20.907ZM103.816 22.1686L103.757 21.8382C103.223 22.8895 101.532 23.3702 100.464 23.3702C97.9133 23.3702 96.015 21.0271 96.015 18.2335C96.015 15.47 97.943 13.187 100.613 13.187C101.057 13.187 102.6 13.3072 103.786 14.719L103.846 14.3886C103.846 13.7878 104.291 13.3072 104.884 13.3072C105.477 13.3072 105.952 13.8178 105.952 14.3886V22.1386C105.952 22.7393 105.477 23.22 104.884 23.22C104.261 23.25 103.816 22.7393 103.816 22.1686ZM113.456 15.7703H113.159C111.439 15.8605 111.113 16.8517 111.113 17.9932V21.8382C111.113 22.6192 110.49 23.25 109.748 23.25C109.007 23.25 108.384 22.6192 108.384 21.8382V14.4186C108.384 13.8178 108.859 13.3372 109.452 13.3372C110.045 13.3372 110.49 13.8479 110.49 14.4186C111.498 13.4574 112.329 13.2471 113.159 13.2171H113.426C114.079 13.2171 114.672 13.7878 114.672 14.5087C114.702 15.1696 114.109 15.7703 113.456 15.7703ZM123.986 21.1773C124.105 21.3876 124.194 21.5979 124.194 21.8382C124.194 22.5591 123.541 23.22 122.829 23.22C122.355 23.22 121.939 22.8595 121.613 22.439L118.469 18.7442V21.8081C118.469 22.5891 117.846 23.22 117.104 23.22C116.363 23.22 115.74 22.5891 115.74 21.8081V10.5436C115.74 9.7626 116.333 9.13178 117.104 9.13178C117.876 9.13178 118.469 9.7626 118.469 10.5436V17.5727L121.613 14.0581C121.939 13.6977 122.325 13.3072 122.8 13.3072C123.482 13.3072 124.105 13.938 124.105 14.6589C124.105 14.8692 124.045 15.1095 123.927 15.2897L121.435 18.0533L123.986 21.1773ZM129.325 15.8004C128.584 15.8004 127.367 16.1909 127.367 17.3624H131.312C131.283 16.1909 130.037 15.8004 129.325 15.8004ZM132.885 19.1347H127.367C127.367 20.7868 128.94 21.0572 129.622 21.0572C130.126 21.0572 130.838 20.9671 131.401 20.6967C131.579 20.5765 131.846 20.4864 132.113 20.4864C132.707 20.4864 133.211 20.9971 133.211 21.6279C133.211 22.0484 132.944 22.4089 132.618 22.6192C131.787 23.25 130.69 23.4002 129.651 23.4002C126.893 23.4002 124.609 21.8983 124.609 18.3837C124.609 15.6202 126.003 13.2171 129.266 13.2171C131.906 13.2171 133.893 14.9593 133.952 18.0533C133.952 18.624 133.478 19.1347 132.885 19.1347ZM140.478 23.3702H139.736C137.66 23.3702 136.444 22.439 136.444 19.1647V15.7703H135.732C135.079 15.7703 134.516 15.1696 134.516 14.5087C134.516 13.7878 135.109 13.2171 135.732 13.2171H136.444V10.6037C136.444 9.82268 137.037 9.19186 137.808 9.19186C138.55 9.19186 139.173 9.82268 139.173 10.6037V13.2171H140.3C140.953 13.2171 141.516 13.7878 141.516 14.5087C141.516 15.1696 140.923 15.7703 140.3 15.7703H139.173V18.624C139.173 20.5165 139.262 20.907 140.092 20.907H140.478C141.13 20.907 141.694 21.4477 141.694 22.1386C141.694 22.7994 141.13 23.3702 140.478 23.3702ZM153.677 10.2132C154.033 10.4234 154.36 10.9341 154.36 11.3847C154.36 12.1056 153.766 12.7064 153.084 12.7064C152.906 12.7064 152.758 12.6463 152.61 12.6163C151.809 12.0155 150.8 11.625 149.732 11.625C147.211 11.625 145.491 13.6977 145.491 16.281C145.491 18.8643 147.241 20.907 149.732 20.907C150.978 20.907 152.105 20.3963 152.936 19.5853C153.143 19.4351 153.41 19.345 153.677 19.345C154.36 19.345 154.894 19.8857 154.894 20.5765C154.894 21.0271 154.627 21.4176 154.3 21.6279C153.084 22.6793 151.453 23.3702 149.762 23.3702C145.906 23.3702 142.762 20.156 142.762 16.1909C142.762 12.2258 145.906 9.01163 149.762 9.01163C151.186 8.98159 152.58 9.43217 153.677 10.2132ZM160.589 20.907C161.805 20.907 162.843 19.7955 162.843 18.2936C162.843 16.7917 161.775 15.8004 160.589 15.8004C159.372 15.8004 158.423 16.8217 158.423 18.2936C158.423 19.7355 159.402 20.907 160.589 20.907ZM163.495 22.1686L163.436 21.8382C162.902 22.8895 161.211 23.3702 160.144 23.3702C157.593 23.3702 155.694 21.0271 155.694 18.2335C155.694 15.47 157.622 13.187 160.292 13.187C160.737 13.187 162.279 13.3072 163.466 14.719L163.525 14.3886C163.525 13.7878 163.97 13.3072 164.563 13.3072C165.156 13.3072 165.631 13.8178 165.631 14.3886V22.1386C165.631 22.7393 165.156 23.22 164.563 23.22C163.94 23.25 163.495 22.7393 163.495 22.1686ZM173.076 20.907C174.292 20.907 175.241 19.7355 175.241 18.2936C175.241 16.7917 174.263 15.8004 173.076 15.8004C171.86 15.8004 170.822 16.7917 170.822 18.2936C170.822 19.7955 171.86 20.907 173.076 20.907ZM170.822 22.5591V26.0736C170.822 26.8547 170.199 27.4855 169.457 27.4855C168.716 27.4855 168.093 26.8547 168.093 26.0736V14.4186C168.093 13.8178 168.568 13.3372 169.161 13.3372C169.754 13.3372 170.199 13.8479 170.199 14.5388C171.207 13.4874 172.453 13.2171 173.402 13.2171C176.042 13.2171 178 15.47 178 18.2636C178 21.0271 176.131 23.4002 173.551 23.4002C172.75 23.3701 171.563 23.1298 170.822 22.5591Z" fill="#6E6F83"/>
</svg>
