<svg width="277" height="14" viewBox="0 0 277 14" fill="none" xmlns="http://www.w3.org/2000/svg">
<path d="M0 13.7316H6.97117V11.4058H6.27867C6.04783 11.4058 5.77083 11.0479 5.77083 10.869V3.48881C5.77083 3.26517 6.094 2.95207 6.27867 2.95207H6.97117V0.536733H0V2.95207H0.646333C0.923333 2.95207 1.20033 3.3099 1.20033 3.48881V10.8243C1.20033 11.0479 0.877167 11.361 0.646333 11.361H0V13.7316ZM7.43283 13.7316H13.7577V11.4058H12.6035V6.75399C12.9267 6.70926 13.1575 6.70927 13.3883 6.70927C14.2193 6.70927 14.6348 6.84345 14.6348 7.55911V13.6869H19.667V11.361H19.3438C19.113 11.361 18.836 11.0479 18.836 10.869V5.94888C18.836 4.11501 17.5433 3.57828 16.1583 3.57828C14.5425 3.57828 13.3883 4.2492 12.465 5.14377C12.3727 4.07029 12.0957 3.75719 11.7263 3.75719H7.29433V6.21725H7.84833C8.07917 6.21725 8.35617 6.53035 8.35617 6.70927V10.9137C8.35617 11.0479 8.033 11.4058 7.84833 11.4058H7.3405C7.43283 11.4505 7.43283 13.7316 7.43283 13.7316ZM19.7593 6.3067H20.775V11.0927C20.775 13.4185 22.2985 14 24.5607 14C25.484 14 26.2688 13.8658 26.8228 13.6869V11.4505H26.315C25.3917 11.4505 25.1147 11.1821 25.1147 10.3323V6.35143H26.7767V3.89137H25.1147V1.25239H20.8673V3.84664H19.8517L19.7593 6.3067ZM37.672 9.66133C37.672 9.52715 37.7182 9.16933 37.7182 8.67732C37.7182 5.1885 36.0562 3.66772 32.6398 3.66772C29.1773 3.66772 27.0998 5.68051 27.0998 8.8115C27.0998 11.9425 28.7157 13.8658 32.686 13.8658C35.0405 13.8658 36.3793 13.4633 37.3488 12.9713V10.6454H35.0867C34.6712 11.1374 34.2095 11.4505 33.1477 11.4505C31.9935 11.4505 31.4857 10.9137 31.3933 9.66133C31.3472 9.66133 37.672 9.66133 37.672 9.66133ZM32.686 5.94888C33.4247 5.94888 33.7478 6.44089 33.8402 7.64855H31.3933C31.578 6.48561 31.9012 5.94888 32.686 5.94888ZM38.3183 13.7316H44.5508V11.4058H43.489V7.20127C44.043 7.06708 44.9663 6.88818 46.259 6.88818H46.7207V3.84664C46.3975 3.75718 46.259 3.75719 46.1667 3.75719C44.874 3.75719 44.1815 4.38338 43.489 5.23322C43.3967 4.15974 43.1197 3.84664 42.7503 3.84664H38.3183V6.3067H38.8723C39.1032 6.3067 39.3802 6.6198 39.3802 6.79872V11.0032C39.3802 11.2268 39.057 11.4952 38.8723 11.4952H38.3645L38.3183 13.7316ZM47.3208 13.7316H53.6457V11.4058H52.4915V6.75399C52.8147 6.70926 53.0455 6.70927 53.2763 6.70927C54.1073 6.70927 54.5228 6.84345 54.5228 7.55911V13.6869H59.555V11.361H59.2318C59.001 11.361 58.724 11.0479 58.724 10.869V5.94888C58.724 4.11501 57.4313 3.57828 56.0463 3.57828C54.4305 3.57828 53.2763 4.2492 52.3992 5.14377C52.3068 4.07029 52.0298 3.75719 51.6605 3.75719H47.2285V6.21725H47.7825C48.0133 6.21725 48.2903 6.53035 48.2903 6.70927V10.9137C48.2903 11.0479 47.9672 11.4058 47.7825 11.4058H47.2747C47.3208 11.4505 47.3208 13.7316 47.3208 13.7316ZM63.2022 13.8658C64.4487 13.8658 65.4182 13.508 66.1107 12.7029C66.48 13.4185 67.1263 13.8658 68.419 13.8658C69.4347 13.8658 70.1733 13.6422 70.8197 13.3291V11.4058H70.4503C70.2195 11.4058 69.9887 11.0927 69.9887 10.9137V6.97763C69.9887 4.65175 68.5575 3.62299 65.372 3.62299C63.2945 3.62299 61.6787 3.98082 60.5707 4.29392V7.06709H62.2788C62.6943 6.70926 63.2022 6.39616 64.264 6.39616C65.2797 6.39616 65.6952 6.75399 65.6952 7.42491V7.96166C65.1412 7.8722 64.5872 7.82748 63.8485 7.82748C61.4478 7.82748 59.9243 8.72204 59.9243 10.9137C60.0167 12.9712 61.4478 13.8658 63.2022 13.8658ZM64.9103 11.5399C64.4025 11.5399 63.987 11.3163 63.987 10.6454C63.987 9.92971 64.3563 9.66133 65.0488 9.66133C65.3258 9.66133 65.6028 9.70607 65.8337 9.7508V11.2716C65.5567 11.4505 65.2797 11.5399 64.9103 11.5399ZM70.9582 6.3067H71.9738V11.0927C71.9738 13.4185 73.4973 14 75.7595 14C76.6828 14 77.4677 13.8658 78.0217 13.6869V11.4505H77.4677C76.5443 11.4505 76.2673 11.1821 76.2673 10.3323V6.35143H77.9293V3.89137H76.2673V1.25239H72.02V3.84664H71.0043V6.3067H70.9582ZM78.4372 13.7316H84.6235V11.4058H84.1157C83.8848 11.4058 83.6078 11.0927 83.6078 10.9137V4.78594C83.6078 4.15974 83.377 3.80192 83.0538 3.80192H78.391V6.26198H78.945C79.1758 6.26198 79.4067 6.57507 79.4067 6.75399V10.9585C79.4067 11.1821 79.1297 11.4505 78.945 11.4505H78.4372V13.6869V13.7316ZM81.4842 3.48881C82.6383 3.48881 83.4232 2.81789 83.4232 1.78914C83.4232 0.760384 82.6383 0 81.4842 0C80.33 0 79.5452 0.715655 79.5452 1.78914C79.5452 2.72844 80.3762 3.48881 81.4842 3.48881ZM90.6713 13.9105C93.9953 13.9105 96.4422 12.0319 96.4422 8.85623C96.4422 5.72524 94.0415 3.71246 90.6713 3.71246C87.3012 3.71246 84.9467 5.72524 84.9467 8.85623C84.9928 11.9872 87.3935 13.9105 90.6713 13.9105ZM90.6713 11.4505C89.7942 11.4505 89.194 10.6454 89.194 8.8115C89.194 6.97763 89.748 6.21725 90.6713 6.21725C91.5947 6.21725 92.1487 6.97763 92.1487 8.8115C92.1948 10.6901 91.5485 11.4505 90.6713 11.4505ZM96.8577 13.7316H103.183V11.4058H102.028V6.75399C102.352 6.70926 102.582 6.70927 102.813 6.70927C103.644 6.70927 104.06 6.84345 104.06 7.55911V13.6869H109.092V11.361H108.769C108.538 11.361 108.261 11.0479 108.261 10.869V5.94888C108.261 4.11501 106.968 3.57828 105.583 3.57828C103.967 3.57828 102.813 4.2492 101.89 5.14377C101.798 4.07029 101.521 3.75719 101.151 3.75719H96.7192V6.21725H97.2732C97.504 6.21725 97.781 6.53035 97.781 6.70927V10.9137C97.781 11.0479 97.4578 11.4058 97.2732 11.4058H96.7653C96.8577 11.4505 96.8577 13.7316 96.8577 13.7316ZM112.739 13.8658C113.986 13.8658 114.955 13.508 115.647 12.7029C116.017 13.4185 116.663 13.8658 117.956 13.8658C118.972 13.8658 119.71 13.6422 120.357 13.3291V11.4058H119.987C119.756 11.4058 119.525 11.0927 119.525 10.9137V6.97763C119.525 4.65175 118.094 3.62299 114.909 3.62299C112.831 3.62299 111.215 3.98082 110.107 4.29392V7.06709H111.816C112.231 6.70926 112.739 6.39616 113.801 6.39616C114.817 6.39616 115.232 6.75399 115.232 7.42491V7.96166C114.678 7.8722 114.124 7.82748 113.385 7.82748C110.985 7.82748 109.461 8.72204 109.461 10.9137C109.6 12.9712 111.077 13.8658 112.739 13.8658ZM114.493 11.5399C113.939 11.5399 113.57 11.3163 113.57 10.6454C113.57 9.92971 113.939 9.66133 114.632 9.66133C114.909 9.66133 115.186 9.70607 115.417 9.7508V11.2716C115.093 11.4505 114.817 11.5399 114.493 11.5399ZM120.864 13.7316H127.143V11.4058H126.589C126.358 11.4058 126.127 11.0927 126.127 10.9137V1.38657C126.127 0.894558 125.85 0.581464 125.573 0.581464H120.864V2.9968H121.418C121.649 2.9968 121.88 3.3099 121.88 3.48881V10.9137C121.88 11.1374 121.603 11.4058 121.418 11.4058H120.864V13.6869C120.818 13.7316 120.864 13.7316 120.864 13.7316ZM130.652 13.7316H137.253C140.901 13.7316 143.163 12.4792 143.163 9.92971C143.163 8.14057 142.055 7.20128 140.07 6.88818V6.79872C141.732 6.39616 142.794 5.63579 142.794 4.02556C142.794 1.74441 140.854 0.626196 137.253 0.626196H130.698V2.9968H131.252C131.529 2.9968 131.806 3.35463 131.806 3.53355V10.869C131.806 11.0927 131.483 11.4058 131.252 11.4058H130.698V13.6869H130.652V13.7316ZM136.192 11.3163V8.1853H136.93C138.131 8.1853 138.592 8.67731 138.592 9.7508C138.592 10.8243 138.131 11.361 136.93 11.361H136.192V11.3163ZM136.192 3.08626H136.884C137.992 3.08626 138.408 3.57827 138.408 4.51756C138.408 5.41213 137.946 5.94888 136.884 5.94888H136.192V3.08626ZM147.041 13.9105C148.703 13.9105 149.765 13.2843 150.642 12.3898C150.734 13.4633 151.057 13.7764 151.38 13.7764H155.72V11.4505H155.258C155.028 11.4505 154.797 11.1374 154.797 10.9585V3.89137H149.58V6.35143H150.596V10.9137C150.273 10.9585 150.042 11.0032 149.857 11.0032C149.026 11.0032 148.611 10.869 148.611 10.1086V3.9361H143.532V6.39616H143.948C144.086 6.39616 144.409 6.70927 144.409 6.88818V11.5847C144.317 13.4185 145.656 13.9105 147.041 13.9105ZM160.429 13.9105C163.846 13.9105 165.277 12.6581 165.277 10.377C165.277 8.05111 163.984 7.46964 161.399 7.20127C160.198 7.06708 159.829 6.93291 159.829 6.66454C159.829 6.30671 160.152 6.12779 160.983 6.12779C161.768 6.12779 162.276 6.39616 162.645 6.79872H164.861V4.20447C163.846 3.89137 162.738 3.71246 160.891 3.71246C158.075 3.71246 156.182 4.78594 156.182 7.06709C156.182 9.30351 157.475 10.0639 159.691 10.2875C160.983 10.4217 161.353 10.5559 161.353 10.9585C161.353 11.4058 160.891 11.4952 160.198 11.4952C159.46 11.4952 158.721 11.1374 158.444 10.6454H156.182V13.3738C157.105 13.5974 158.352 13.9105 160.429 13.9105ZM165.877 13.7316H172.063V11.4058H171.555C171.325 11.4058 171.048 11.0927 171.048 10.9137V4.78594C171.048 4.15974 170.817 3.80192 170.493 3.80192H165.831V6.26198H166.385C166.615 6.26198 166.846 6.57507 166.846 6.75399V10.9585C166.846 11.1821 166.569 11.4505 166.385 11.4505H165.877V13.7316ZM168.924 3.48881C170.078 3.48881 170.909 2.81789 170.909 1.78914C170.909 0.760384 170.124 0 168.924 0C167.77 0 166.985 0.715655 166.985 1.78914C166.985 2.72844 167.816 3.48881 168.924 3.48881ZM172.571 13.7316H178.85V11.4058H177.695V6.75399C178.019 6.70926 178.25 6.70927 178.48 6.70927C179.311 6.70927 179.727 6.84345 179.727 7.55911V13.6869H184.759V11.361H184.436C184.205 11.361 183.928 11.0479 183.928 10.869V5.94888C183.928 4.11501 182.635 3.57828 181.25 3.57828C179.635 3.57828 178.48 4.2492 177.557 5.14377C177.465 4.07029 177.188 3.75719 176.818 3.75719H172.386V6.21725H172.94C173.171 6.21725 173.448 6.53035 173.448 6.70927V10.9137C173.448 11.0479 173.125 11.4058 172.94 11.4058H172.432C172.571 11.4505 172.571 13.7316 172.571 13.7316ZM195.654 9.66133C195.654 9.52715 195.701 9.16933 195.701 8.67732C195.701 5.1885 194.085 3.66772 190.622 3.66772C187.16 3.66772 185.082 5.68051 185.082 8.8115C185.082 11.9425 186.698 13.8658 190.668 13.8658C193.023 13.8658 194.362 13.4633 195.285 12.9713V10.6454H193.023C192.607 11.1374 192.146 11.4505 191.084 11.4505C189.93 11.4505 189.422 10.9137 189.329 9.66133H195.654ZM190.668 5.94888C191.407 5.94888 191.73 6.44089 191.823 7.64855H189.376C189.514 6.48561 189.883 5.94888 190.668 5.94888ZM200.548 13.9105C203.964 13.9105 205.396 12.6581 205.396 10.377C205.396 8.05111 204.103 7.46964 201.518 7.20127C200.317 7.06708 199.994 6.93291 199.994 6.66454C199.994 6.30671 200.317 6.12779 201.148 6.12779C201.933 6.12779 202.441 6.39616 202.764 6.79872H204.98V4.20447C203.964 3.89137 202.856 3.71246 201.01 3.71246C198.193 3.71246 196.301 4.78594 196.301 7.06709C196.301 9.30351 197.593 10.0639 199.809 10.2875C201.102 10.4217 201.471 10.5559 201.471 10.9585C201.471 11.4058 201.01 11.4952 200.317 11.4952C199.579 11.4952 198.794 11.1374 198.563 10.6454H196.301V13.3738C197.178 13.5974 198.424 13.9105 200.548 13.9105ZM210.105 13.9105C213.521 13.9105 214.952 12.6581 214.952 10.377C214.952 8.05111 213.659 7.46964 211.074 7.20127C209.874 7.06708 209.504 6.93291 209.504 6.66454C209.504 6.30671 209.827 6.12779 210.658 6.12779C211.443 6.12779 211.951 6.39616 212.32 6.79872H214.537V4.20447C213.521 3.89137 212.413 3.71246 210.566 3.71246C207.75 3.71246 205.857 4.78594 205.857 7.06709C205.857 9.30351 207.15 10.0639 209.366 10.2875C210.659 10.4217 211.028 10.5559 211.028 10.9585C211.028 11.4058 210.566 11.4952 209.874 11.4952C209.135 11.4952 208.396 11.1374 208.119 10.6454H205.857V13.3738C206.827 13.5974 208.073 13.9105 210.105 13.9105ZM221.369 13.7316H228.248V11.4058H227.602C227.325 11.4058 227.048 11.0479 227.048 10.869V3.13099H228.156L228.479 5.54633H231.203V0.626196H218.553V5.54633H221.277L221.6 3.13099H222.708V10.869C222.708 11.0927 222.385 11.4058 222.154 11.4058H221.508L221.369 13.7316ZM231.757 13.7316H237.943V11.4058H237.435C237.204 11.4058 236.927 11.0927 236.927 10.9137V4.78594C236.927 4.15974 236.697 3.80192 236.373 3.80192H231.711V6.26198H232.264C232.495 6.26198 232.726 6.57507 232.726 6.75399V10.9585C232.726 11.1821 232.449 11.4505 232.264 11.4505H231.757V13.7316ZM234.804 3.48881C235.958 3.48881 236.789 2.81789 236.789 1.78914C236.789 0.760384 236.004 0 234.804 0C233.649 0 232.865 0.715655 232.865 1.78914C232.911 2.72844 233.696 3.48881 234.804 3.48881ZM238.451 13.7316H244.545V11.4058H243.668V6.75399C243.991 6.70926 244.222 6.70927 244.406 6.70927C245.284 6.70927 245.468 6.84345 245.468 7.55911V13.6869H250.547V11.361H249.669V6.70927C249.992 6.66454 250.223 6.66454 250.408 6.66454C251.285 6.66454 251.424 6.79872 251.424 7.51437V13.6422H256.456V11.3163H256.133C255.902 11.3163 255.625 11.0032 255.625 10.8243V5.90415C255.625 4.07028 254.378 3.53355 252.993 3.53355C251.331 3.53355 250.316 4.29393 249.531 5.14377C249.208 3.89138 248.1 3.53355 246.992 3.53355C245.376 3.53355 244.314 4.29393 243.529 5.14377C243.437 3.98083 243.16 3.66772 242.791 3.66772H238.359V6.12779H238.913C239.143 6.12779 239.42 6.44089 239.42 6.61981V10.8243C239.42 10.9585 239.097 11.3163 238.913 11.3163H238.405V13.6869C238.312 13.7316 238.451 13.7316 238.451 13.7316ZM267.259 9.66133C267.259 9.52715 267.305 9.16933 267.305 8.67732C267.305 5.1885 265.689 3.66772 262.227 3.66772C258.81 3.66772 256.687 5.68051 256.687 8.8115C256.687 11.9425 258.302 13.8658 262.273 13.8658C264.627 13.8658 265.966 13.4633 266.889 12.9713V10.6454H264.627C264.212 11.1374 263.75 11.4505 262.688 11.4505C261.534 11.4505 261.026 10.9137 260.934 9.66133H267.259ZM262.227 5.94888C262.965 5.94888 263.289 6.44089 263.381 7.64855H260.934C261.073 6.48561 261.488 5.94888 262.227 5.94888ZM272.152 13.9105C275.569 13.9105 277 12.6581 277 10.377C277 8.05111 275.707 7.46964 273.122 7.20127C271.922 7.06708 271.599 6.93291 271.599 6.66454C271.599 6.30671 271.922 6.12779 272.753 6.12779C273.538 6.12779 274.045 6.39616 274.368 6.79872H276.585V4.20447C275.569 3.89137 274.461 3.71246 272.614 3.71246C269.798 3.71246 267.905 4.78594 267.905 7.06709C267.905 9.30351 269.198 10.0639 271.414 10.2875C272.707 10.4217 273.076 10.5559 273.076 10.9585C273.076 11.4058 272.614 11.4952 271.922 11.4952C271.183 11.4952 270.398 11.1374 270.167 10.6454H267.905V13.3738C268.782 13.5974 270.029 13.9105 272.152 13.9105Z" fill="#6E6F83"/>
</svg>
