<svg width="146" height="25" viewBox="0 0 146 25" fill="none" xmlns="http://www.w3.org/2000/svg">
<path d="M4.72147 1.67993H0V20.16H4.72147V1.67993Z" fill="#6E6F83"/>
<path d="M15.5793 7.0255H15.1102C14.2393 7.01909 13.3878 7.28352 12.6729 7.7824C11.958 8.28128 11.4149 8.99009 11.1183 9.81126V7.0255H6.54914V20.1601H11.1183V12.1449C11.1183 11.5981 11.3349 11.0737 11.7205 10.687C12.1061 10.3003 12.6291 10.0831 13.1744 10.0831C13.7197 10.0831 14.2427 10.3003 14.6283 10.687C15.0139 11.0737 15.2306 11.5981 15.2306 12.1449V20.1631H19.7997V11.1522C19.7997 8.87198 17.9096 7.0255 15.5793 7.0255Z" fill="#6E6F83"/>
<path d="M83.3553 7.0255H82.8862C82.0152 7.01909 81.1637 7.28352 80.4488 7.7824C79.7339 8.28128 79.1908 8.99009 78.8942 9.81126V7.0255H74.3251V20.1601H78.8942V12.1449C78.8942 11.5981 79.1109 11.0737 79.4965 10.687C79.8821 10.3003 80.405 10.0831 80.9503 10.0831C81.4957 10.0831 82.0187 10.3003 82.4043 10.687C82.7899 11.0737 83.0065 11.5981 83.0065 12.1449V20.1631H87.5756V11.1522C87.5756 8.87198 85.6855 7.0255 83.3553 7.0255Z" fill="#6E6F83"/>
<path d="M29.401 7.02539L26.8058 15.711L24.2105 7.02539H19.7997L24.3978 20.16H26.6428H26.9687H29.2137L33.8118 7.02539H29.401Z" fill="#6E6F83"/>
<path d="M37.9241 14.6465H46.3009V12.6763C46.3009 11.1776 45.7071 9.74026 44.6503 8.68051C43.5935 7.62075 42.1601 7.02539 40.6656 7.02539H38.9902C37.4956 7.02539 36.0623 7.62075 35.0054 8.68051C33.9486 9.74026 33.3549 11.1776 33.3549 12.6763V14.8145C33.3549 15.5566 33.5007 16.2914 33.7839 16.977C34.0671 17.6626 34.4821 18.2856 35.0054 18.8103C36.0623 19.8701 37.4956 20.4654 38.9902 20.4654H40.6656C41.9107 20.4657 43.1209 20.0523 44.1071 19.29C45.0933 18.5277 45.7999 17.4593 46.1166 16.2517L41.651 16.2013C41.5322 16.5975 41.2882 16.9442 40.9557 17.1892C40.6233 17.4342 40.2204 17.5641 39.8078 17.5595C39.3953 17.5548 38.9954 17.4158 38.6686 17.1634C38.3417 16.911 38.1055 16.5588 37.9956 16.16C37.9515 15.9978 37.929 15.8303 37.9286 15.6621V14.6541L37.9241 14.6465ZM37.9241 11.5309C37.9241 11.0245 38.1246 10.5389 38.4817 10.1809C38.8387 9.8229 39.323 9.62176 39.8279 9.62176C40.3328 9.62176 40.817 9.8229 41.1741 10.1809C41.5311 10.5389 41.7317 11.0245 41.7317 11.5309V12.2181H37.9241V11.5309Z" fill="#6E6F83"/>
<path d="M66.7098 10.3854V7.02543H64.1206V3.5127H59.7037V16.0241C59.7037 16.5873 59.8144 17.145 60.0293 17.6653C60.2442 18.1856 60.5592 18.6584 60.9564 19.0566C61.3535 19.4549 61.825 19.7708 62.3438 19.9863C62.8627 20.2018 63.4188 20.3127 63.9805 20.3127H66.7098V16.9527H65.8188C65.5957 16.9527 65.3747 16.9086 65.1686 16.823C64.9624 16.7373 64.7752 16.6117 64.6174 16.4534C64.4597 16.2951 64.3347 16.1072 64.2494 15.9004C64.1642 15.6937 64.1204 15.4721 64.1206 15.2483V10.3854H66.7098Z" fill="#6E6F83"/>
<path d="M72.6497 7.02539H67.9282V20.16H72.6497V7.02539Z" fill="#6E6F83"/>
<path d="M72.6497 4.58183L67.9282 5.4982V0.916366L72.6497 0V4.58183Z" fill="#6E6F83"/>
<path d="M47.2375 16.3326C47.3489 17.505 47.892 18.5937 48.7608 19.3861C49.6296 20.1785 50.7617 20.6178 51.9362 20.6182H53.7638C55.016 20.6182 56.217 20.1193 57.1024 19.2314C57.9879 18.3435 58.4853 17.1393 58.4853 15.8836V15.7309C58.4853 14.6372 58.052 13.5883 57.2808 12.815C56.5096 12.0417 55.4637 11.6072 54.373 11.6072H52.3169C52.0544 11.6072 51.8026 11.5026 51.6169 11.3165C51.4312 11.1303 51.3269 10.8778 51.3269 10.6145C51.3269 10.3512 51.4312 10.0987 51.6169 9.91253C51.8026 9.72635 52.0544 9.62176 52.3169 9.62176H53.2308C53.4933 9.62176 53.7451 9.72635 53.9308 9.91253C54.1164 10.0987 54.2207 10.3512 54.2207 10.6145C54.2206 10.6823 54.2134 10.7498 54.1994 10.8161H58.3909C58.1738 9.74612 57.5946 8.78427 56.7514 8.09345C55.9081 7.40263 54.8527 7.02531 53.7638 7.02539H51.9362C50.7099 7.02475 49.5315 7.50255 48.6503 8.35769C47.7691 9.21282 47.2542 10.3782 47.2147 11.6072C47.2541 12.6742 47.7047 13.6842 48.4717 14.4248C49.2386 15.1654 50.2622 15.5789 51.3269 15.5781H53.3831C53.6456 15.5781 53.8974 15.6827 54.0831 15.8689C54.2687 16.0551 54.373 16.3076 54.373 16.5709C54.373 16.8342 54.2687 17.0867 54.0831 17.2728C53.8974 17.459 53.6456 17.5636 53.3831 17.5636H52.4692C52.2067 17.5636 51.9549 17.459 51.7692 17.2728C51.5835 17.0867 51.4792 16.8342 51.4792 16.5709C51.4796 16.5032 51.4863 16.4357 51.499 16.3693L47.2345 16.3326" fill="#6E6F83"/>
<path d="M97.9248 7.02534V8.84432C96.9318 7.63625 95.5382 6.8833 93.9907 6.8833C90.9812 6.8833 88.5413 9.73167 88.5413 13.2444C88.5413 16.7571 90.9781 19.604 93.9907 19.604C95.4422 19.604 96.7597 18.9412 97.7375 17.8598V20.7143C97.7354 21.1181 97.5741 21.5046 97.2887 21.7893C97.0033 22.0741 96.617 22.234 96.2144 22.234H95.1148C94.915 22.2352 94.7171 22.1967 94.5322 22.1209C94.3474 22.0451 94.1794 21.9333 94.0378 21.792C93.8962 21.6508 93.7839 21.4828 93.7074 21.2979C93.6308 21.1129 93.5915 20.9146 93.5917 20.7143H89.1033C89.1033 21.2772 89.2139 21.8346 89.4287 22.3547C89.6436 22.8747 89.9585 23.3472 90.3555 23.7452C90.7525 24.1432 91.2239 24.4588 91.7425 24.6741C92.2612 24.8894 92.8171 25.0001 93.3785 24.9999H96.7414C98.1931 24.9999 99.5854 24.4216 100.612 23.3922C101.639 22.3628 102.215 20.9666 102.215 19.5108V7.02534H97.9248ZM95.6174 16.6854C94.2771 16.6854 93.1911 15.1749 93.1911 13.3116C93.1911 11.4483 94.2771 9.93938 95.6174 9.93938C96.9577 9.93938 98.0436 11.4499 98.0436 13.3116C98.0436 15.1734 96.9577 16.6854 95.6174 16.6854Z" fill="#6E6F83"/>
<path d="M106.889 17.0779H103.816V20.1599H106.889V17.0779Z" fill="#6E6F83"/>
<path d="M115.218 16.377C114.876 17.6309 114.074 18.5152 113.139 18.5152C111.893 18.5152 110.883 16.9512 110.883 15.0223C110.883 13.0933 111.893 11.534 113.139 11.534C114.052 11.534 114.844 12.3816 115.198 13.5989H117.779C117.552 12.5086 116.957 11.5299 116.095 10.8274C115.233 10.1249 114.156 9.74124 113.046 9.74097C111.763 9.74097 110.533 10.2516 109.626 11.1606C108.719 12.0696 108.209 13.3026 108.208 14.5885V15.6989C108.209 16.9847 108.719 18.2175 109.626 19.1263C110.534 20.035 111.763 20.5453 113.046 20.5449C114.21 20.5445 115.335 20.1229 116.215 19.3575C117.094 18.5922 117.668 17.5344 117.833 16.3785L115.218 16.377Z" fill="#6E6F83"/>
<path d="M123.637 9.44482C120.806 9.44482 118.51 11.8885 118.51 14.888C118.51 17.8876 120.806 20.3313 123.637 20.3313C126.468 20.3313 128.762 17.8876 128.762 14.888C128.762 11.8885 126.467 9.44482 123.637 9.44482ZM123.637 18.248C122.527 18.248 121.627 16.7437 121.627 14.888C121.627 13.0324 122.527 11.528 123.637 11.528C124.747 11.528 125.646 13.0324 125.646 14.888C125.646 16.7437 124.746 18.2542 123.637 18.2542V18.248Z" fill="#6E6F83"/>
<path d="M143.108 9.73486H141.99C141.373 9.73674 140.775 9.94716 140.292 10.3321C139.809 10.7171 139.47 11.254 139.329 11.8563C139.159 11.2468 138.796 10.7096 138.293 10.3267C137.791 9.94368 137.177 9.73586 136.546 9.73486H135.497C134.908 9.73471 134.334 9.92576 133.862 10.2795C133.39 10.6332 133.044 11.1306 132.877 11.6974V9.73486H129.722V20.1601H132.877V13.6523C132.877 13.1784 133.065 12.7239 133.399 12.3888C133.733 12.0537 134.187 11.8654 134.659 11.8654C135.132 11.8654 135.585 12.0537 135.919 12.3888C136.254 12.7239 136.441 13.1784 136.441 13.6523V20.1601H139.439V13.6523C139.439 13.1784 139.626 12.7239 139.961 12.3888C140.295 12.0537 140.748 11.8654 141.221 11.8654C141.693 11.8654 142.147 12.0537 142.481 12.3888C142.815 12.7239 143.003 13.1784 143.003 13.6523V20.1601H146V12.6352C146 11.8661 145.695 11.1286 145.152 10.5848C144.61 10.041 143.875 9.73527 143.108 9.73486Z" fill="#6E6F83"/>
</svg>
