<svg width="108" height="31" viewBox="0 0 108 31" fill="none" xmlns="http://www.w3.org/2000/svg">
<g clip-path="url(#clip0_117_33)">
<path d="M79.6392 23.4811C75.9512 23.4811 73.6595 21.3209 73.6595 17.8391C73.6595 14.2255 75.7742 11.9773 79.1793 11.9773H79.465C79.8921 11.9773 80.4802 11.9913 81.2836 12.0928V7.73096H83.6889V23.0879C83.6889 23.0879 81.4034 23.4811 79.6392 23.4811ZM79.6176 13.8922C77.2876 13.8922 76.1546 15.1639 76.1546 17.7785C76.1546 20.126 77.5217 21.5851 79.7179 21.5851C80.1402 21.5851 80.6237 21.557 81.2829 21.4999V14.0486C80.6244 13.9415 80.0935 13.8922 79.6176 13.8922ZM46.6922 23.1288L40.1948 11.6637L40.1927 23.1288H37.9282V8.61446H41.0985L47.596 19.9774L47.5932 8.61446H49.8877V23.1288H46.6922ZM67.3885 23.3521C66.2946 23.3521 65.154 23.2281 63.796 22.9639L63.6489 22.9358V20.9081L63.8635 20.9546C65.0613 21.2131 66.0953 21.4337 67.13 21.4337C67.9655 21.4337 69.9115 21.3012 69.9115 20.0577C69.9115 19.015 68.5668 18.7529 67.4868 18.5436L67.4185 18.5295C67.2164 18.4915 67.0262 18.4527 66.8659 18.4119C65.2815 17.9962 63.5911 17.3713 63.5911 15.2245C63.5911 13.1306 65.2299 11.9308 68.0881 11.9308C69.46 11.9308 70.4557 12.0787 71.2563 12.1999L71.6451 12.2577V14.2255L71.4382 14.1874C70.5324 14.019 69.4705 13.8457 68.4497 13.8457C67.3147 13.8457 65.9678 14.0606 65.9678 15.0815C65.9678 15.929 67.0701 16.1714 68.3466 16.4525C70.1317 16.8428 72.3447 17.3332 72.3447 19.7963C72.3447 22.0558 70.54 23.3521 67.3885 23.3521ZM90.4413 23.3521C87.9517 23.3521 85.6461 22.9083 85.6461 19.6941C85.6461 16.1961 89.2115 16.1961 91.3429 16.1961C91.5547 16.1961 92.5567 16.2433 92.864 16.2567C92.8612 14.2945 92.8368 13.8267 90.0225 13.8267C88.907 13.8267 87.6681 14.0493 86.5742 14.248L86.3652 14.286V12.3485L86.5059 12.3183C87.774 12.0576 88.9969 11.9308 90.2434 11.9308C92.9706 11.9308 95.2811 12.2083 95.2811 15.6296V23.0908L95.1153 23.1098C93.2263 23.324 91.7268 23.3521 90.442 23.3521H90.4413ZM91.283 17.9271C89.2275 17.9271 87.9538 18.2329 87.9538 19.7547C87.9538 21.5161 89.5787 21.6619 91.1032 21.6619C91.6718 21.6619 92.6954 21.588 93.0082 21.5654V17.9877C92.5678 17.9687 91.4217 17.9271 91.283 17.9271ZM56.6917 23.3521C54.1986 23.3521 51.8937 22.9083 51.8937 19.6941C51.8937 16.1961 55.4591 16.1961 57.5898 16.1961C57.8023 16.1961 58.8064 16.2433 59.1143 16.2567C59.1115 14.2945 59.0844 13.8267 56.2701 13.8267C55.1539 13.8267 53.915 14.0493 52.8211 14.248L52.612 14.286V12.3485L52.7563 12.3183C53.985 12.0614 55.2363 11.9315 56.491 11.9308C59.2175 11.9308 61.5287 12.2083 61.5287 15.6296V23.0908L61.3621 23.1098C59.4739 23.324 57.9737 23.3521 56.6917 23.3521ZM57.5299 17.9271C55.4751 17.9271 54.2042 18.2329 54.2042 19.7547C54.2042 21.5161 55.8263 21.6619 57.3508 21.6619C57.9222 21.6619 58.9457 21.588 59.2586 21.5654V17.9877C58.8147 17.9687 57.6692 17.9271 57.5306 17.9271" fill="#6E6F83"/>
<mask id="mask0_117_33" style="mask-type:alpha" maskUnits="userSpaceOnUse" x="96" y="11" width="12" height="18">
<path d="M96.8516 11.2727H107.322V28.1818H96.8516V11.2727Z" fill="white"/>
</mask>
<g mask="url(#mask0_117_33)">
<path d="M104.859 28.0607V23.2994C103.92 23.4318 103.422 23.4318 103.019 23.4318C102.066 23.4318 101.008 23.2226 100.188 22.8731C98.3539 22.1016 97.2599 20.143 97.2599 17.6299C97.2599 16.3758 97.5623 14.0825 99.5844 12.8467C100.6 12.2338 101.797 11.9717 103.599 11.9717C104.244 11.9717 105.115 12.021 105.956 12.0703L107.322 12.1422V26.9574L104.859 28.0607ZM103.419 13.8873C100.975 13.8866 99.7363 15.1478 99.7363 17.6299C99.7363 20.8257 101.584 21.4971 103.138 21.4971C103.516 21.4971 103.941 21.4971 104.883 21.376V13.9564C104.145 13.9071 103.805 13.8873 103.419 13.8873H103.419Z" fill="#6E6F83"/>
</g>
<mask id="mask1_117_33" style="mask-type:alpha" maskUnits="userSpaceOnUse" x="17" y="0" width="20" height="24">
<path d="M17.4193 0.0112305H36.2322V23.25H17.4193V0.0112305Z" fill="white"/>
</mask>
<g mask="url(#mask1_117_33)">
<path d="M27.1826 0.0112305L19.2268 22.1128C19.1284 22.3849 18.9563 22.6236 18.73 22.8014C18.5038 22.9792 18.2326 23.089 17.9475 23.1182V23.1288H26.3576C27.016 23.1288 27.5797 22.7053 27.7894 22.1135L35.748 0.0112305H27.1826Z" fill="#6E6F83"/>
</g>
<path d="M17.2612 22.7935C17.7489 22.7935 18.176 22.5483 18.4373 22.177C18.4645 22.1383 18.56 22.003 18.6276 21.8191L21.5456 13.7084L19.8385 8.97176C19.7391 8.7319 19.5781 8.52329 19.3721 8.36755C19.1661 8.21181 18.9226 8.1146 18.667 8.086C18.4113 8.05739 18.1528 8.09844 17.9181 8.20487C17.6834 8.31131 17.4811 8.47927 17.3322 8.69135C17.3044 8.7301 17.1908 8.90271 17.142 9.04926L14.2239 17.1572L15.9387 21.9128C16.0499 22.1742 16.2345 22.3969 16.4695 22.5535C16.7045 22.71 16.9798 22.7934 17.2612 22.7935Z" fill="#6E6F83"/>
<mask id="mask2_117_33" style="mask-type:alpha" maskUnits="userSpaceOnUse" x="-1" y="7" width="20" height="24">
<path d="M-0.696777 7.04541H18.1161V30.8569H-0.696777V7.04541Z" fill="white"/>
</mask>
<g mask="url(#mask2_117_33)">
<path d="M17.8848 7.73877H9.38206C8.72361 7.73877 8.15992 8.16009 7.94741 8.75472L-0.00836182 30.8563H8.55708L16.5135 8.75543C16.6168 8.46789 16.8023 8.21793 17.0465 8.03738C17.2907 7.85683 17.5825 7.75386 17.8848 7.74159V7.73877Z" fill="#6E6F83"/>
</g>
</g>
<defs>
<clipPath id="clip0_117_33">
<rect width="108" height="31" fill="white"/>
</clipPath>
</defs>
</svg>
