<svg width="103" height="31" viewBox="0 0 103 31" fill="none" xmlns="http://www.w3.org/2000/svg">
<path d="M15.6236 31C24.2523 31 31.2472 24.0604 31.2472 15.5C31.2472 6.93959 24.2523 0 15.6236 0C6.99492 0 0 6.93959 0 15.5C0 24.0604 6.99492 31 15.6236 31Z" fill="#6E6F83"/>
<path d="M6.49296 13.9193H5.59825V16.7423C5.59825 16.9049 5.56051 17.026 5.48503 17.1055C5.40955 17.1833 5.31198 17.2221 5.19231 17.2221C5.07081 17.2221 4.9714 17.1824 4.89408 17.1028C4.8186 17.0233 4.78086 16.9032 4.78086 16.7423V13.9193H3.88614C3.74623 13.9193 3.64221 13.8902 3.5741 13.8318C3.50598 13.7718 3.47192 13.6931 3.47192 13.5959C3.47192 13.4952 3.5069 13.4157 3.57686 13.3574C3.64866 13.299 3.75175 13.2699 3.88614 13.2699H6.49296C6.63472 13.2699 6.73965 13.2999 6.80777 13.36C6.87773 13.4201 6.9127 13.4987 6.9127 13.5959C6.9127 13.6931 6.87773 13.7718 6.80777 13.8318C6.73781 13.8902 6.63288 13.9193 6.49296 13.9193Z" fill="#010316"/>
<path d="M9.0915 15.9286H7.61688C7.61872 16.0929 7.65278 16.2378 7.71905 16.3633C7.78717 16.4888 7.87645 16.5833 7.98691 16.6469C8.09921 16.7105 8.22256 16.7423 8.35695 16.7423C8.44716 16.7423 8.52908 16.7326 8.60272 16.7132C8.6782 16.692 8.75092 16.6602 8.82087 16.6178C8.89083 16.5736 8.95527 16.5268 9.01418 16.4773C9.07309 16.4278 9.14949 16.3606 9.24338 16.2758C9.28204 16.244 9.33727 16.2281 9.40907 16.2281C9.48639 16.2281 9.54898 16.2484 9.59684 16.2891C9.64471 16.3297 9.66864 16.3871 9.66864 16.4614C9.66864 16.5268 9.64195 16.6036 9.58856 16.692C9.53517 16.7786 9.45417 16.8625 9.34555 16.9438C9.23877 17.0233 9.10346 17.0896 8.93962 17.1426C8.77761 17.1956 8.59075 17.2221 8.37904 17.2221C7.89486 17.2221 7.51838 17.0896 7.2496 16.8245C6.98082 16.5594 6.84643 16.1998 6.84643 15.7457C6.84643 15.5318 6.87957 15.3339 6.94584 15.1519C7.01212 14.9681 7.10877 14.8108 7.2358 14.6801C7.36282 14.5493 7.51931 14.4495 7.70524 14.3805C7.89118 14.3099 8.09737 14.2745 8.32381 14.2745C8.61837 14.2745 8.87058 14.3346 9.08045 14.4548C9.29216 14.5732 9.45049 14.7269 9.55542 14.916C9.66036 15.1051 9.71283 15.2977 9.71283 15.4939C9.71283 15.6759 9.65852 15.7943 9.5499 15.849C9.44128 15.9021 9.28848 15.9286 9.0915 15.9286ZM7.61688 15.5177H8.9838C8.96539 15.2703 8.89543 15.0856 8.77393 14.9637C8.65427 14.84 8.49594 14.7782 8.29896 14.7782C8.11118 14.7782 7.95654 14.8409 7.83503 14.9664C7.71537 15.0901 7.64265 15.2738 7.61688 15.5177Z" fill="#010316"/>
<path d="M13.0542 16.3262C13.0542 16.4163 13.0257 16.5126 12.9686 16.6151C12.9134 16.7176 12.8278 16.8157 12.7118 16.9093C12.5976 17.0012 12.4531 17.0755 12.2782 17.132C12.1033 17.1886 11.9063 17.2168 11.6873 17.2168C11.2215 17.2168 10.8579 17.0869 10.5965 16.8272C10.3351 16.5656 10.2044 16.2157 10.2044 15.7775C10.2044 15.4806 10.2642 15.2182 10.3839 14.9902C10.5035 14.7622 10.6766 14.5864 10.903 14.4627C11.1295 14.3372 11.4001 14.2745 11.7149 14.2745C11.91 14.2745 12.0886 14.3019 12.2506 14.3567C12.4145 14.4115 12.5525 14.4822 12.6648 14.5687C12.779 14.6553 12.8655 14.7481 12.9244 14.8471C12.9852 14.9443 13.0155 15.0353 13.0155 15.1201C13.0155 15.2067 12.9815 15.28 12.9134 15.3401C12.8471 15.4002 12.7661 15.4302 12.6704 15.4302C12.6078 15.4302 12.5553 15.4152 12.5129 15.3852C12.4724 15.3534 12.4264 15.303 12.3749 15.2341C12.2828 15.0998 12.1862 14.999 12.0849 14.9319C11.9855 14.8647 11.8585 14.8312 11.7038 14.8312C11.4811 14.8312 11.3016 14.9151 11.1654 15.083C11.0291 15.2491 10.961 15.4771 10.961 15.7669C10.961 15.9029 10.9785 16.0284 11.0135 16.1433C11.0485 16.2564 11.0991 16.3536 11.1654 16.4349C11.2316 16.5144 11.3117 16.5754 11.4056 16.6178C11.4995 16.6584 11.6026 16.6787 11.7149 16.6787C11.8658 16.6787 11.9947 16.6452 12.1015 16.578C12.2101 16.5109 12.3058 16.4084 12.3887 16.2705C12.4347 16.1892 12.4844 16.1256 12.5378 16.0797C12.5912 16.0337 12.6565 16.0107 12.7339 16.0107C12.8259 16.0107 12.9023 16.0443 12.9631 16.1115C13.0238 16.1786 13.0542 16.2502 13.0542 16.3262Z" fill="#010316"/>
<path d="M14.3079 13.6436V14.7172C14.4036 14.6112 14.4966 14.5272 14.5868 14.4654C14.6789 14.4035 14.7801 14.3576 14.8906 14.3275C15.001 14.2957 15.1198 14.2798 15.2468 14.2798C15.4383 14.2798 15.6076 14.3187 15.7549 14.3964C15.904 14.4742 16.0209 14.5873 16.1056 14.7357C16.159 14.8223 16.1949 14.9195 16.2133 15.0273C16.2317 15.1334 16.2409 15.2562 16.2409 15.3958V16.7821C16.2409 16.927 16.2059 17.0366 16.136 17.1108C16.0679 17.185 15.9767 17.2221 15.8626 17.2221C15.6141 17.2221 15.4898 17.0755 15.4898 16.7821V15.5601C15.4898 15.3286 15.4539 15.151 15.3821 15.0273C15.3103 14.9019 15.1741 14.8391 14.9734 14.8391C14.839 14.8391 14.7175 14.8762 14.6089 14.9504C14.5021 15.0229 14.422 15.1227 14.3686 15.25C14.3281 15.3578 14.3079 15.5495 14.3079 15.8252V16.7821C14.3079 16.9252 14.2738 17.0348 14.2057 17.1108C14.1394 17.185 14.0465 17.2221 13.9268 17.2221C13.6783 17.2221 13.554 17.0755 13.554 16.7821V13.6436C13.554 13.497 13.5862 13.3874 13.6507 13.3149C13.7169 13.2407 13.809 13.2036 13.9268 13.2036C14.0465 13.2036 14.1394 13.2407 14.2057 13.3149C14.2738 13.3892 14.3079 13.4987 14.3079 13.6436Z" fill="#010316"/>
<path d="M18.1436 15.4939H17.8564V16.7423C17.8564 16.9067 17.8186 17.0277 17.7432 17.1055C17.6677 17.1833 17.5692 17.2221 17.4477 17.2221C17.317 17.2221 17.2157 17.1815 17.1439 17.1002C17.0721 17.0189 17.0362 16.8996 17.0362 16.7423V13.7523C17.0362 13.5827 17.0758 13.4599 17.155 13.3839C17.2341 13.3079 17.3621 13.2699 17.5388 13.2699H18.8726C19.0567 13.2699 19.2141 13.2778 19.3448 13.2937C19.4755 13.3079 19.5933 13.3379 19.6983 13.3839C19.8253 13.4351 19.9376 13.5084 20.0352 13.6039C20.1327 13.6993 20.2064 13.8106 20.2561 13.9379C20.3076 14.0633 20.3334 14.1968 20.3334 14.3381C20.3334 14.6279 20.2478 14.8594 20.0766 15.0326C19.9072 15.2058 19.6495 15.3286 19.3034 15.4011C19.4488 15.4753 19.5878 15.5849 19.7204 15.7298C19.8529 15.8747 19.9707 16.0293 20.0738 16.1936C20.1788 16.3562 20.2598 16.5038 20.3168 16.6363C20.3757 16.7671 20.4052 16.8572 20.4052 16.9067C20.4052 16.9579 20.3877 17.0092 20.3527 17.0604C20.3196 17.1099 20.2736 17.1488 20.2147 17.1771C20.1558 17.2071 20.0876 17.2221 20.0103 17.2221C19.9183 17.2221 19.8409 17.2009 19.7784 17.1585C19.7158 17.1179 19.6614 17.0657 19.6154 17.0021C19.5712 16.9385 19.5105 16.8448 19.4332 16.7211L19.1046 16.1963C18.9867 16.0037 18.8809 15.857 18.787 15.7563C18.6949 15.6555 18.601 15.5866 18.5053 15.5495C18.4096 15.5124 18.289 15.4939 18.1436 15.4939ZM18.613 13.861H17.8564V14.9292H18.5909C18.7879 14.9292 18.9536 14.9133 19.088 14.8815C19.2224 14.848 19.3246 14.7923 19.3945 14.7145C19.4663 14.635 19.5022 14.5263 19.5022 14.3885C19.5022 14.2807 19.4737 14.1862 19.4166 14.1049C19.3595 14.0218 19.2804 13.96 19.1791 13.9193C19.0834 13.8804 18.8947 13.861 18.613 13.861Z" fill="#010316"/>
<path d="M22.8878 16.8139C22.7055 16.95 22.5288 17.0525 22.3576 17.1214C22.1882 17.1886 21.9976 17.2221 21.7859 17.2221C21.5926 17.2221 21.4223 17.1859 21.2751 17.1135C21.1296 17.0392 21.0173 16.9394 20.9382 16.8139C20.859 16.6884 20.8194 16.5524 20.8194 16.4057C20.8194 16.2078 20.8848 16.039 21.0155 15.8994C21.1462 15.7598 21.3257 15.6661 21.554 15.6184C21.6018 15.6078 21.7206 15.584 21.9102 15.5469C22.0998 15.5098 22.2618 15.4762 22.3962 15.4461C22.5324 15.4143 22.6797 15.3763 22.838 15.3322C22.8288 15.1413 22.7883 15.0017 22.7165 14.9133C22.6466 14.8232 22.5002 14.7782 22.2775 14.7782C22.086 14.7782 21.9415 14.8038 21.8439 14.855C21.7482 14.9063 21.6653 14.9831 21.5954 15.0856C21.5273 15.1881 21.4785 15.2562 21.449 15.2897C21.4214 15.3216 21.3607 15.3375 21.2668 15.3375C21.1821 15.3375 21.1085 15.3118 21.0459 15.2606C20.9851 15.2076 20.9547 15.1404 20.9547 15.0591C20.9547 14.9319 21.0017 14.8082 21.0956 14.688C21.1895 14.5679 21.3358 14.4689 21.5346 14.3911C21.7335 14.3134 21.9811 14.2745 22.2775 14.2745C22.6088 14.2745 22.8693 14.3125 23.059 14.3885C23.2486 14.4627 23.3821 14.5811 23.4594 14.7437C23.5385 14.9063 23.5781 15.1219 23.5781 15.3905C23.5781 15.5601 23.5772 15.7041 23.5754 15.8225C23.5754 15.9409 23.5744 16.0726 23.5726 16.2175C23.5726 16.3536 23.5956 16.4958 23.6416 16.6443C23.6895 16.7909 23.7134 16.8855 23.7134 16.9279C23.7134 17.0021 23.6766 17.0702 23.603 17.132C23.5312 17.1921 23.4493 17.2221 23.3572 17.2221C23.2799 17.2221 23.2035 17.1877 23.128 17.1188C23.0525 17.0481 22.9724 16.9465 22.8878 16.8139ZM22.838 15.7669C22.7276 15.8058 22.5665 15.8473 22.3548 15.8915C22.1449 15.9339 21.9995 15.9657 21.9185 15.9869C21.8375 16.0063 21.7602 16.0461 21.6865 16.1062C21.6129 16.1645 21.5761 16.2467 21.5761 16.3527C21.5761 16.4623 21.6193 16.5559 21.7059 16.6337C21.7924 16.7097 21.9056 16.7476 22.0455 16.7476C22.1946 16.7476 22.3318 16.7167 22.457 16.6549C22.584 16.5913 22.677 16.51 22.7359 16.411C22.804 16.3014 22.838 16.1212 22.838 15.8703V15.7669Z" fill="#010316"/>
<path d="M24.2436 14.3434H24.3265V13.9087C24.3265 13.7921 24.3292 13.7011 24.3348 13.6357C24.3421 13.5685 24.3605 13.5111 24.39 13.4634C24.4194 13.4139 24.4618 13.3741 24.517 13.3441C24.5722 13.3123 24.6339 13.2964 24.702 13.2964C24.7978 13.2964 24.8843 13.3308 24.9616 13.3998C25.0132 13.4457 25.0454 13.5023 25.0583 13.5694C25.073 13.6348 25.0804 13.7285 25.0804 13.8504V14.3434H25.3565C25.4633 14.3434 25.5443 14.3682 25.5995 14.4177C25.6566 14.4654 25.6851 14.5272 25.6851 14.6032C25.6851 14.7004 25.6446 14.7684 25.5636 14.8073C25.4845 14.8462 25.3703 14.8656 25.2212 14.8656H25.0804V16.1963C25.0804 16.3094 25.084 16.3969 25.0914 16.4587C25.1006 16.5188 25.1227 16.5683 25.1577 16.6072C25.1945 16.6443 25.2534 16.6628 25.3344 16.6628C25.3786 16.6628 25.4384 16.6558 25.5139 16.6416C25.5894 16.6257 25.6483 16.6178 25.6906 16.6178C25.7514 16.6178 25.8057 16.6416 25.8536 16.6893C25.9033 16.7353 25.9281 16.7927 25.9281 16.8616C25.9281 16.9783 25.8619 17.0675 25.7293 17.1294C25.5968 17.1912 25.4062 17.2221 25.1577 17.2221C24.922 17.2221 24.7435 17.1841 24.622 17.1081C24.5005 17.0322 24.4204 16.927 24.3817 16.7927C24.3449 16.6584 24.3265 16.479 24.3265 16.2546V14.8656H24.2271C24.1184 14.8656 24.0356 14.8409 23.9785 14.7914C23.9215 14.7419 23.8929 14.6792 23.8929 14.6032C23.8929 14.5272 23.9224 14.4654 23.9813 14.4177C24.042 14.3682 24.1295 14.3434 24.2436 14.3434Z" fill="#010316"/>
<path d="M28.3113 15.9286H26.8366C26.8385 16.0929 26.8725 16.2378 26.9388 16.3633C27.0069 16.4888 27.0962 16.5833 27.2067 16.6469C27.319 16.7105 27.4423 16.7423 27.5767 16.7423C27.6669 16.7423 27.7488 16.7326 27.8225 16.7132C27.898 16.692 27.9707 16.6602 28.0406 16.6178C28.1106 16.5736 28.175 16.5268 28.2339 16.4773C28.2929 16.4278 28.3693 16.3606 28.4631 16.2758C28.5018 16.244 28.557 16.2281 28.6288 16.2281C28.7062 16.2281 28.7687 16.2484 28.8166 16.2891C28.8645 16.3297 28.8884 16.3871 28.8884 16.4614C28.8884 16.5268 28.8617 16.6036 28.8083 16.692C28.7549 16.7786 28.6739 16.8625 28.5653 16.9438C28.4585 17.0233 28.3232 17.0896 28.1594 17.1426C27.9974 17.1956 27.8105 17.2221 27.5988 17.2221C27.1146 17.2221 26.7382 17.0896 26.4694 16.8245C26.2006 16.5594 26.0662 16.1998 26.0662 15.7457C26.0662 15.5318 26.0993 15.3339 26.1656 15.1519C26.2319 14.9681 26.3285 14.8108 26.4556 14.6801C26.5826 14.5493 26.7391 14.4495 26.925 14.3805C27.111 14.3099 27.3171 14.2745 27.5436 14.2745C27.8381 14.2745 28.0904 14.3346 28.3002 14.4548C28.5119 14.5732 28.6703 14.7269 28.7752 14.916C28.8801 15.1051 28.9326 15.2977 28.9326 15.4939C28.9326 15.6759 28.8783 15.7943 28.7697 15.849C28.6611 15.9021 28.5082 15.9286 28.3113 15.9286ZM26.8366 15.5177H28.2036C28.1852 15.2703 28.1152 15.0856 27.9937 14.9637C27.874 14.84 27.7157 14.7782 27.5187 14.7782C27.3309 14.7782 27.1763 14.8409 27.0548 14.9664C26.9351 15.0901 26.8624 15.2738 26.8366 15.5177Z" fill="#010316"/>
<path d="M43.841 11.1279H41.4822V18.7904C41.4822 19.2317 41.3827 19.5603 41.1837 19.7761C40.9847 19.9872 40.7275 20.0927 40.412 20.0927C40.0917 20.0927 39.8296 19.9848 39.6258 19.7689C39.4268 19.5531 39.3273 19.2269 39.3273 18.7904V11.1279H36.9685C36.5996 11.1279 36.3254 11.0488 36.1458 10.8905C35.9663 10.7274 35.8765 10.514 35.8765 10.2501C35.8765 9.97674 35.9687 9.76089 36.1531 9.6026C36.3424 9.44432 36.6142 9.36517 36.9685 9.36517H43.841C44.2147 9.36517 44.4914 9.44672 44.671 9.6098C44.8554 9.77288 44.9476 9.98633 44.9476 10.2501C44.9476 10.514 44.8554 10.7274 44.671 10.8905C44.4865 11.0488 44.2099 11.1279 43.841 11.1279Z" fill="#6E6F83"/>
<path d="M50.6917 16.5816H46.8041C46.8089 17.0277 46.8987 17.421 47.0734 17.7616C47.253 18.1021 47.4884 18.3587 47.7796 18.5314C48.0757 18.7041 48.4009 18.7904 48.7552 18.7904C48.993 18.7904 49.209 18.7641 49.4031 18.7113C49.6021 18.6537 49.7938 18.5674 49.9782 18.4523C50.1627 18.3324 50.3325 18.2053 50.4879 18.071C50.6432 17.9366 50.8446 17.7544 51.0921 17.5241C51.194 17.4378 51.3396 17.3946 51.5289 17.3946C51.7328 17.3946 51.8978 17.4498 52.024 17.5601C52.1502 17.6704 52.2133 17.8263 52.2133 18.0278C52.2133 18.2053 52.1429 18.4139 52.0021 18.6537C51.8614 18.8888 51.6478 19.1166 51.3615 19.3372C51.08 19.5531 50.7233 19.733 50.2913 19.8769C49.8642 20.0208 49.3716 20.0927 48.8134 20.0927C47.5369 20.0927 46.5444 19.733 45.8358 19.0135C45.1272 18.294 44.7729 17.3179 44.7729 16.0852C44.7729 15.5048 44.8603 14.9676 45.035 14.4735C45.2097 13.9747 45.4645 13.5478 45.7994 13.1928C46.1343 12.8379 46.5468 12.5669 47.037 12.3798C47.5272 12.188 48.0708 12.092 48.6678 12.092C49.4444 12.092 50.1093 12.2551 50.6626 12.5813C51.2207 12.9026 51.6381 13.3199 51.9148 13.8332C52.1914 14.3464 52.3298 14.8692 52.3298 15.4017C52.3298 15.8957 52.1866 16.2171 51.9002 16.3658C51.6139 16.5097 51.211 16.5816 50.6917 16.5816ZM46.8041 15.4664H50.4078C50.3592 14.7949 50.1748 14.2937 49.8545 13.9627C49.539 13.6269 49.1216 13.459 48.6023 13.459C48.1072 13.459 47.6995 13.6293 47.3792 13.9699C47.0637 14.3056 46.872 14.8045 46.8041 15.4664Z" fill="#6E6F83"/>
<path d="M61.1388 17.6608C61.1388 17.9055 61.0636 18.1669 60.9131 18.4451C60.7675 18.7233 60.5418 18.9895 60.2361 19.2437C59.9352 19.4931 59.5542 19.6946 59.0931 19.8481C58.632 20.0016 58.1127 20.0783 57.5351 20.0783C56.3072 20.0783 55.3486 19.7258 54.6594 19.0207C53.9702 18.3108 53.6256 17.3611 53.6256 16.1715C53.6256 15.3657 53.7834 14.6534 54.0988 14.0346C54.4143 13.4159 54.8705 12.9386 55.4675 12.6029C56.0645 12.2623 56.778 12.092 57.6079 12.092C58.1224 12.092 58.5932 12.1664 59.0203 12.3151C59.4522 12.4638 59.8162 12.6556 60.1123 12.8907C60.4132 13.1257 60.6413 13.3775 60.7966 13.6461C60.9568 13.9099 61.0369 14.157 61.0369 14.3872C61.0369 14.6222 60.9471 14.8213 60.7675 14.9844C60.5928 15.1474 60.3792 15.229 60.1269 15.229C59.9618 15.229 59.8235 15.1882 59.7119 15.1067C59.6051 15.0203 59.4838 14.8836 59.3479 14.6966C59.1052 14.332 58.8504 14.0586 58.5835 13.8764C58.3214 13.6941 57.9865 13.6029 57.5788 13.6029C56.9915 13.6029 56.5183 13.8308 56.1591 14.2865C55.8 14.7373 55.6204 15.3561 55.6204 16.1427C55.6204 16.5121 55.6665 16.8526 55.7587 17.1644C55.851 17.4714 55.9844 17.7352 56.1591 17.9558C56.3339 18.1717 56.545 18.3372 56.7925 18.4523C57.0401 18.5626 57.3118 18.6178 57.6079 18.6178C58.0059 18.6178 58.3456 18.5266 58.6271 18.3444C58.9135 18.1621 59.1659 17.8839 59.3843 17.5098C59.5056 17.2891 59.6367 17.1164 59.7774 16.9917C59.9182 16.867 60.0905 16.8047 60.2943 16.8047C60.537 16.8047 60.7384 16.8958 60.8986 17.0781C61.0587 17.2603 61.1388 17.4546 61.1388 17.6608Z" fill="#6E6F83"/>
<path d="M64.444 10.3796V13.2936C64.6964 13.0058 64.9415 12.7779 65.1793 12.6101C65.422 12.4422 65.689 12.3175 65.9802 12.2359C66.2714 12.1496 66.5844 12.1064 66.9193 12.1064C67.4241 12.1064 67.8706 12.2119 68.2589 12.423C68.652 12.634 68.9602 12.941 69.1835 13.3439C69.3242 13.579 69.4188 13.8428 69.4674 14.1354C69.5159 14.4232 69.5402 14.7565 69.5402 15.1355V18.8984C69.5402 19.2917 69.448 19.5891 69.2635 19.7905C69.084 19.992 68.8437 20.0927 68.5428 20.0927C67.8876 20.0927 67.56 19.6946 67.56 18.8984V15.5815C67.56 14.9532 67.4653 14.4711 67.276 14.1354C67.0868 13.7948 66.7276 13.6245 66.1986 13.6245C65.8443 13.6245 65.5239 13.7253 65.2376 13.9267C64.9561 14.1234 64.7449 14.3944 64.6042 14.7397C64.4974 15.0323 64.444 15.5528 64.444 16.301V18.8984C64.444 19.2869 64.3542 19.5843 64.1747 19.7905C63.9999 19.992 63.7548 20.0927 63.4394 20.0927C62.7841 20.0927 62.4565 19.6946 62.4565 18.8984V10.3796C62.4565 9.98153 62.5415 9.68415 62.7113 9.48749C62.8861 9.28603 63.1287 9.1853 63.4394 9.1853C63.7548 9.1853 63.9999 9.28603 64.1747 9.48749C64.3542 9.68894 64.444 9.98633 64.444 10.3796Z" fill="#6E6F83"/>
<path d="M74.5563 15.4017H73.7991V18.7904C73.7991 19.2365 73.6996 19.5651 73.5006 19.7761C73.3016 19.9872 73.042 20.0927 72.7216 20.0927C72.377 20.0927 72.1101 19.9824 71.9208 19.7617C71.7315 19.5411 71.6369 19.2173 71.6369 18.7904V10.6746C71.6369 10.2142 71.7412 9.88081 71.9499 9.67455C72.1586 9.4683 72.496 9.36517 72.9619 9.36517H76.4782C76.9636 9.36517 77.3786 9.38676 77.7231 9.42993C78.0677 9.4683 78.3784 9.54984 78.655 9.67455C78.9899 9.81365 79.286 10.0127 79.5432 10.2717C79.8004 10.5307 79.9946 10.8329 80.1256 11.1783C80.2615 11.5188 80.3295 11.881 80.3295 12.2647C80.3295 13.0513 80.1038 13.6797 79.6524 14.1498C79.2059 14.6198 78.5264 14.9532 77.6139 15.1498C77.9974 15.3513 78.3638 15.6487 78.7133 16.042C79.0627 16.4353 79.3733 16.855 79.6451 17.3011C79.9218 17.7424 80.1353 18.1429 80.2858 18.5026C80.4411 18.8576 80.5188 19.1022 80.5188 19.2365C80.5188 19.3756 80.4726 19.5147 80.3804 19.6538C80.2931 19.7881 80.1717 19.8937 80.0164 19.9704C79.8611 20.0519 79.6815 20.0927 79.4777 20.0927C79.235 20.0927 79.0312 20.0352 78.8661 19.92C78.7011 19.8097 78.5579 19.6682 78.4366 19.4955C78.3201 19.3229 78.16 19.0686 77.9561 18.7329L77.0898 17.3083C76.7791 16.7855 76.5001 16.3874 76.2525 16.114C76.0099 15.8405 75.7623 15.6535 75.51 15.5528C75.2576 15.452 74.9397 15.4017 74.5563 15.4017ZM75.7939 10.9696H73.7991V13.8692H75.7356C76.255 13.8692 76.6918 13.826 77.0461 13.7396C77.4004 13.6485 77.6698 13.4974 77.8542 13.2864C78.0435 13.0705 78.1381 12.7755 78.1381 12.4014C78.1381 12.1088 78.0629 11.8522 77.9124 11.6316C77.762 11.4061 77.5533 11.2382 77.2863 11.1279C77.034 11.0224 76.5365 10.9696 75.7939 10.9696Z" fill="#6E6F83"/>
<path d="M87.0637 18.9847C86.5832 19.354 86.1172 19.6322 85.6659 19.8193C85.2193 20.0016 84.717 20.0927 84.1589 20.0927C83.6492 20.0927 83.2003 19.9944 82.812 19.7977C82.4286 19.5963 82.1325 19.3253 81.9238 18.9847C81.7151 18.6441 81.6108 18.2748 81.6108 17.8767C81.6108 17.3395 81.7831 16.8814 82.1277 16.5025C82.4723 16.1235 82.9455 15.8693 83.5473 15.7398C83.6735 15.711 83.9866 15.6463 84.4865 15.5456C84.9864 15.4448 85.4135 15.3537 85.7678 15.2722C86.1269 15.1858 86.5152 15.0827 86.9326 14.9628C86.9084 14.4447 86.8016 14.0658 86.6123 13.826C86.4279 13.5814 86.042 13.459 85.4547 13.459C84.95 13.459 84.569 13.5286 84.3117 13.6677C84.0594 13.8068 83.841 14.0155 83.6565 14.2937C83.4769 14.5719 83.3483 14.7565 83.2707 14.8477C83.1979 14.934 83.0377 14.9772 82.7902 14.9772C82.5669 14.9772 82.3728 14.9076 82.2078 14.7685C82.0476 14.6246 81.9675 14.4423 81.9675 14.2217C81.9675 13.8764 82.0913 13.5406 82.3388 13.2144C82.5863 12.8883 82.9722 12.6196 83.4964 12.4086C84.0205 12.1976 84.6733 12.092 85.4547 12.092C86.3284 12.092 87.0151 12.1952 87.515 12.4014C88.0149 12.6029 88.3668 12.9242 88.5707 13.3655C88.7794 13.8068 88.8837 14.392 88.8837 15.1211C88.8837 15.5815 88.8813 15.9725 88.8764 16.2938C88.8764 16.6152 88.874 16.9725 88.8692 17.3659C88.8692 17.7352 88.9298 18.1213 89.0512 18.5242C89.1774 18.9223 89.2404 19.179 89.2404 19.2941C89.2404 19.4955 89.1434 19.6802 88.9492 19.8481C88.76 20.0112 88.544 20.0927 88.3013 20.0927C88.0975 20.0927 87.896 19.9992 87.697 19.8121C87.4981 19.6202 87.2869 19.3444 87.0637 18.9847ZM86.9326 16.1427C86.6414 16.2483 86.2167 16.361 85.6586 16.4809C85.1053 16.596 84.7219 16.6823 84.5083 16.7399C84.2948 16.7927 84.0909 16.9006 83.8968 17.0637C83.7026 17.222 83.6056 17.445 83.6056 17.7328C83.6056 18.0302 83.7196 18.2844 83.9477 18.4955C84.1758 18.7017 84.4743 18.8048 84.8432 18.8048C85.2363 18.8048 85.5979 18.7209 85.928 18.553C86.2628 18.3803 86.5079 18.1597 86.6633 17.8911C86.8428 17.5937 86.9326 17.1044 86.9326 16.4233V16.1427Z" fill="#6E6F83"/>
<path d="M90.6383 12.2791H90.8567V11.0991C90.8567 10.7826 90.8639 10.5355 90.8785 10.3581C90.8979 10.1758 90.9464 10.0199 91.0241 9.8904C91.1018 9.75609 91.2134 9.64817 91.359 9.56663C91.5046 9.48029 91.6672 9.43712 91.8468 9.43712C92.0991 9.43712 92.3273 9.53066 92.5311 9.71772C92.667 9.84243 92.7519 9.99592 92.7859 10.1782C92.8247 10.3557 92.8442 10.6099 92.8442 10.9408V12.2791H93.5722C93.8537 12.2791 94.0672 12.3462 94.2128 12.4805C94.3633 12.6101 94.4385 12.7779 94.4385 12.9842C94.4385 13.248 94.3317 13.4327 94.1182 13.5382C93.9095 13.6437 93.6086 13.6965 93.2154 13.6965H92.8442V17.3083C92.8442 17.6153 92.8539 17.8527 92.8733 18.0206C92.8975 18.1837 92.9558 18.318 93.048 18.4235C93.1451 18.5242 93.3004 18.5746 93.5139 18.5746C93.6304 18.5746 93.7882 18.5554 93.9871 18.517C94.1861 18.4739 94.3415 18.4523 94.4531 18.4523C94.6133 18.4523 94.7564 18.517 94.8826 18.6465C95.0137 18.7713 95.0792 18.9271 95.0792 19.1142C95.0792 19.4308 94.9045 19.673 94.555 19.8409C94.2056 20.0088 93.7032 20.0927 93.048 20.0927C92.4268 20.0927 91.956 19.9896 91.6356 19.7833C91.3153 19.5771 91.1042 19.2917 91.0023 18.9271C90.9052 18.5626 90.8567 18.0758 90.8567 17.4666V13.6965H90.5946C90.3082 13.6965 90.0898 13.6293 89.9394 13.495C89.7889 13.3607 89.7137 13.1904 89.7137 12.9842C89.7137 12.7779 89.7913 12.6101 89.9466 12.4805C90.1068 12.3462 90.3373 12.2791 90.6383 12.2791Z" fill="#6E6F83"/>
<path d="M101.362 16.5816H97.4744C97.4792 17.0277 97.569 17.421 97.7437 17.7616C97.9233 18.1021 98.1587 18.3587 98.4499 18.5314C98.746 18.7041 99.0712 18.7904 99.4255 18.7904C99.6633 18.7904 99.8793 18.7641 100.073 18.7113C100.272 18.6537 100.464 18.5674 100.649 18.4523C100.833 18.3324 101.003 18.2053 101.158 18.071C101.313 17.9366 101.515 17.7544 101.762 17.5241C101.864 17.4378 102.01 17.3946 102.199 17.3946C102.403 17.3946 102.568 17.4498 102.694 17.5601C102.82 17.6704 102.884 17.8263 102.884 18.0278C102.884 18.2053 102.813 18.4139 102.672 18.6537C102.532 18.8888 102.318 19.1166 102.032 19.3372C101.75 19.5531 101.394 19.733 100.962 19.8769C100.534 20.0208 100.042 20.0927 99.4837 20.0927C98.2073 20.0927 97.2147 19.733 96.5061 19.0135C95.7975 18.294 95.4432 17.3179 95.4432 16.0852C95.4432 15.5048 95.5306 14.9676 95.7053 14.4735C95.88 13.9747 96.1348 13.5478 96.4697 13.1928C96.8046 12.8379 97.2171 12.5669 97.7073 12.3798C98.1975 12.188 98.7411 12.092 99.3381 12.092C100.115 12.092 100.78 12.2551 101.333 12.5813C101.891 12.9026 102.308 13.3199 102.585 13.8332C102.862 14.3464 103 14.8692 103 15.4017C103 15.8957 102.857 16.2171 102.571 16.3658C102.284 16.5097 101.881 16.5816 101.362 16.5816ZM97.4744 15.4664H101.078C101.03 14.7949 100.845 14.2937 100.525 13.9627C100.209 13.6269 99.7919 13.459 99.2726 13.459C98.7775 13.459 98.3698 13.6293 98.0495 13.9699C97.734 14.3056 97.5423 14.8045 97.4744 15.4664Z" fill="#6E6F83"/>
<path d="M7.59426 19.6484C7.59426 19.6687 7.58774 19.6904 7.57472 19.7136C7.56211 19.7367 7.54258 19.7588 7.51611 19.7799C7.49006 19.8006 7.45707 19.8174 7.41716 19.8301C7.37724 19.8429 7.33229 19.8492 7.28229 19.8492C7.17599 19.8492 7.093 19.8199 7.03334 19.7614C6.97368 19.7024 6.94385 19.6235 6.94385 19.5247C6.94385 19.4577 6.9575 19.3986 6.98481 19.3472C7.01212 19.2958 7.05162 19.2561 7.1033 19.2282C7.15498 19.1999 7.21674 19.1858 7.28859 19.1858C7.33313 19.1858 7.37388 19.192 7.41086 19.2043C7.44825 19.2167 7.47976 19.2326 7.50539 19.2521C7.53144 19.2717 7.55119 19.2926 7.56464 19.3149C7.5785 19.3368 7.58543 19.3573 7.58543 19.3765C7.58543 19.396 7.57766 19.4125 7.56211 19.4261C7.54699 19.4396 7.5285 19.4464 7.50665 19.4464C7.49237 19.4464 7.48039 19.443 7.47073 19.4362C7.46149 19.4291 7.45098 19.4177 7.43922 19.4022C7.41821 19.3719 7.39615 19.3492 7.37304 19.334C7.35035 19.3189 7.32136 19.3113 7.28607 19.3113C7.23523 19.3113 7.19426 19.3302 7.16317 19.3681C7.13208 19.4055 7.11653 19.4569 7.11653 19.5223C7.11653 19.553 7.12053 19.5813 7.12851 19.6072C7.13649 19.6327 7.14805 19.6546 7.16317 19.6729C7.1783 19.6908 7.19657 19.7046 7.218 19.7142C7.23943 19.7233 7.26296 19.7279 7.28859 19.7279C7.32304 19.7279 7.35245 19.7203 7.37682 19.7052C7.40161 19.69 7.42346 19.6669 7.44237 19.6359C7.45287 19.6175 7.46422 19.6032 7.4764 19.5928C7.48859 19.5825 7.5035 19.5773 7.52115 19.5773C7.54216 19.5773 7.55959 19.5849 7.57346 19.6C7.58732 19.6151 7.59426 19.6313 7.59426 19.6484Z" fill="#010316"/>
<path d="M8.12429 19.7757L7.9724 19.539L7.87913 19.6227V19.7524C7.87913 19.7839 7.8703 19.8082 7.85266 19.8253C7.83543 19.8421 7.81547 19.8504 7.79278 19.8504C7.76631 19.8504 7.74551 19.8421 7.73039 19.8253C7.71526 19.8086 7.7077 19.7839 7.7077 19.7512V19.0555C7.7077 19.0192 7.71505 18.9918 7.72976 18.973C7.74446 18.9539 7.76547 18.9443 7.79278 18.9443C7.81925 18.9443 7.84026 18.9529 7.85581 18.97C7.87135 18.9872 7.87913 19.0125 7.87913 19.0459V19.4416L8.07261 19.2492C8.09656 19.2252 8.11484 19.2089 8.12744 19.2001C8.14005 19.1914 8.15538 19.187 8.17345 19.187C8.19488 19.187 8.21273 19.1936 8.22702 19.2067C8.2413 19.2195 8.24845 19.2356 8.24845 19.2551C8.24845 19.279 8.22513 19.3109 8.17849 19.3508L8.08711 19.4303L8.26357 19.6932C8.2766 19.7128 8.28584 19.7277 8.2913 19.7381C8.29719 19.748 8.30013 19.7576 8.30013 19.7667C8.30013 19.7926 8.29256 19.8132 8.27744 19.8283C8.26273 19.8431 8.2432 19.8504 8.21883 19.8504C8.19782 19.8504 8.18164 19.845 8.1703 19.8343C8.15895 19.8235 8.14362 19.804 8.12429 19.7757Z" fill="#010316"/>
<path d="M9.01986 19.6484C9.01986 19.6687 9.01335 19.6904 9.00033 19.7136C8.98772 19.7367 8.96818 19.7588 8.94171 19.7799C8.91566 19.8006 8.88268 19.8174 8.84276 19.8301C8.80285 19.8429 8.75789 19.8492 8.70789 19.8492C8.60159 19.8492 8.51861 19.8199 8.45895 19.7614C8.39929 19.7024 8.36945 19.6235 8.36945 19.5247C8.36945 19.4577 8.38311 19.3986 8.41042 19.3472C8.43773 19.2958 8.47723 19.2561 8.5289 19.2282C8.58058 19.1999 8.64235 19.1858 8.7142 19.1858C8.75873 19.1858 8.79949 19.192 8.83646 19.2043C8.87386 19.2167 8.90537 19.2326 8.931 19.2521C8.95705 19.2717 8.9768 19.2926 8.99024 19.3149C9.00411 19.3368 9.01104 19.3573 9.01104 19.3765C9.01104 19.396 9.00327 19.4125 8.98772 19.4261C8.97259 19.4396 8.95411 19.4464 8.93226 19.4464C8.91797 19.4464 8.906 19.443 8.89634 19.4362C8.88709 19.4291 8.87659 19.4177 8.86482 19.4022C8.84382 19.3719 8.82176 19.3492 8.79865 19.334C8.77596 19.3189 8.74697 19.3113 8.71167 19.3113C8.66084 19.3113 8.61987 19.3302 8.58878 19.3681C8.55769 19.4055 8.54214 19.4569 8.54214 19.5223C8.54214 19.553 8.54613 19.5813 8.55411 19.6072C8.5621 19.6327 8.57365 19.6546 8.58878 19.6729C8.6039 19.6908 8.62218 19.7046 8.64361 19.7142C8.66504 19.7233 8.68857 19.7279 8.7142 19.7279C8.74865 19.7279 8.77806 19.7203 8.80243 19.7052C8.82722 19.69 8.84907 19.6669 8.86797 19.6359C8.87848 19.6175 8.88982 19.6032 8.90201 19.5928C8.91419 19.5825 8.92911 19.5773 8.94675 19.5773C8.96776 19.5773 8.9852 19.5849 8.99906 19.6C9.01293 19.6151 9.01986 19.6313 9.01986 19.6484Z" fill="#010316"/>
<path d="M9.30599 19.0436V19.2856C9.32784 19.2617 9.34906 19.2428 9.36965 19.2288C9.39066 19.2149 9.41376 19.2045 9.43897 19.1978C9.46418 19.1906 9.49128 19.187 9.52027 19.187C9.56397 19.187 9.60263 19.1958 9.63624 19.2133C9.67027 19.2308 9.69695 19.2563 9.71628 19.2898C9.72846 19.3093 9.73666 19.3312 9.74086 19.3555C9.74506 19.3794 9.74716 19.4071 9.74716 19.4386V19.7512C9.74716 19.7839 9.73918 19.8086 9.72321 19.8253C9.70767 19.8421 9.68687 19.8504 9.66082 19.8504C9.6041 19.8504 9.57574 19.8174 9.57574 19.7512V19.4757C9.57574 19.4235 9.56754 19.3834 9.55116 19.3555C9.53477 19.3273 9.50368 19.3131 9.45788 19.3131C9.42721 19.3131 9.39948 19.3215 9.37469 19.3382C9.35032 19.3545 9.33204 19.3771 9.31986 19.4057C9.31061 19.4301 9.30599 19.4733 9.30599 19.5354V19.7512C9.30599 19.7835 9.29822 19.8082 9.28267 19.8253C9.26755 19.8421 9.24633 19.8504 9.21902 19.8504C9.1623 19.8504 9.13394 19.8174 9.13394 19.7512V19.0436C9.13394 19.0105 9.14129 18.9858 9.156 18.9694C9.17112 18.9527 9.19213 18.9443 9.21902 18.9443C9.24633 18.9443 9.26755 18.9527 9.28267 18.9694C9.29822 18.9862 9.30599 19.0109 9.30599 19.0436Z" fill="#010316"/>
<path d="M10.3528 19.7584C10.3112 19.7891 10.2709 19.8122 10.2318 19.8277C10.1932 19.8429 10.1497 19.8504 10.1014 19.8504C10.0572 19.8504 10.0184 19.8423 9.98476 19.8259C9.95157 19.8092 9.92594 19.7867 9.90787 19.7584C9.88981 19.7301 9.88077 19.6994 9.88077 19.6663C9.88077 19.6217 9.89569 19.5837 9.92552 19.5522C9.95535 19.5207 9.99632 19.4996 10.0484 19.4888C10.0593 19.4864 10.0864 19.4811 10.1297 19.4727C10.173 19.4643 10.21 19.4567 10.2406 19.45C10.2717 19.4428 10.3053 19.4342 10.3415 19.4243C10.3394 19.3812 10.3301 19.3498 10.3137 19.3298C10.2978 19.3095 10.2644 19.2994 10.2135 19.2994C10.1698 19.2994 10.1369 19.3051 10.1146 19.3167C10.0927 19.3282 10.0738 19.3456 10.0579 19.3687C10.0423 19.3918 10.0312 19.4071 10.0245 19.4147C10.0182 19.4219 10.0043 19.4255 9.98287 19.4255C9.96354 19.4255 9.94674 19.4197 9.93245 19.4081C9.91859 19.3962 9.91165 19.381 9.91165 19.3627C9.91165 19.334 9.92237 19.3061 9.9438 19.279C9.96522 19.2519 9.99863 19.2296 10.044 19.2121C10.0894 19.1946 10.1459 19.1858 10.2135 19.1858C10.2892 19.1858 10.3486 19.1944 10.3919 19.2115C10.4352 19.2282 10.4656 19.2549 10.4833 19.2916C10.5014 19.3282 10.5104 19.3769 10.5104 19.4374C10.5104 19.4757 10.5102 19.5081 10.5098 19.5348C10.5098 19.5615 10.5095 19.5912 10.5091 19.6239C10.5091 19.6546 10.5144 19.6867 10.5249 19.7201C10.5358 19.7532 10.5413 19.7745 10.5413 19.7841C10.5413 19.8008 10.5329 19.8162 10.5161 19.8301C10.4997 19.8436 10.481 19.8504 10.46 19.8504C10.4423 19.8504 10.4249 19.8427 10.4077 19.8271C10.3904 19.8112 10.3722 19.7883 10.3528 19.7584ZM10.3415 19.5223C10.3163 19.5311 10.2795 19.5404 10.2312 19.5504C10.1833 19.5599 10.1501 19.5671 10.1316 19.5719C10.1131 19.5763 10.0955 19.5853 10.0787 19.5988C10.0619 19.6119 10.0535 19.6305 10.0535 19.6544C10.0535 19.6791 10.0633 19.7002 10.0831 19.7177C10.1028 19.7349 10.1287 19.7434 10.1606 19.7434C10.1946 19.7434 10.2259 19.7365 10.2545 19.7225C10.2835 19.7082 10.3047 19.6898 10.3182 19.6675C10.3337 19.6428 10.3415 19.6022 10.3415 19.5456V19.5223Z" fill="#010316"/>
<path d="M10.8576 19.2796V19.7512C10.8576 19.7839 10.8495 19.8086 10.8331 19.8253C10.8167 19.8421 10.7959 19.8504 10.7707 19.8504C10.7455 19.8504 10.7249 19.8419 10.7089 19.8247C10.6934 19.8076 10.6856 19.7831 10.6856 19.7512V19.2844C10.6856 19.2521 10.6934 19.2278 10.7089 19.2115C10.7249 19.1952 10.7455 19.187 10.7707 19.187C10.7959 19.187 10.8167 19.1952 10.8331 19.2115C10.8495 19.2278 10.8576 19.2505 10.8576 19.2796ZM10.7726 19.1111C10.7486 19.1111 10.728 19.1041 10.7108 19.0902C10.694 19.0762 10.6856 19.0565 10.6856 19.031C10.6856 19.0079 10.6942 18.989 10.7114 18.9742C10.7291 18.9591 10.7495 18.9515 10.7726 18.9515C10.7948 18.9515 10.8146 18.9583 10.8318 18.9718C10.849 18.9854 10.8576 19.0051 10.8576 19.031C10.8576 19.0561 10.8492 19.0758 10.8324 19.0902C10.8156 19.1041 10.7957 19.1111 10.7726 19.1111Z" fill="#010316"/>
<path d="M11.1923 19.2772V19.297C11.2226 19.2591 11.2555 19.2314 11.2913 19.2139C11.3274 19.196 11.3688 19.187 11.4154 19.187C11.4608 19.187 11.5013 19.1964 11.537 19.2151C11.5728 19.2338 11.5994 19.2603 11.6171 19.2946C11.6284 19.3145 11.6358 19.336 11.6391 19.3591C11.6425 19.3822 11.6442 19.4117 11.6442 19.4476V19.7512C11.6442 19.7839 11.6362 19.8086 11.6202 19.8253C11.6047 19.8421 11.5843 19.8504 11.5591 19.8504C11.5335 19.8504 11.5127 19.8419 11.4967 19.8247C11.4807 19.8076 11.4728 19.7831 11.4728 19.7512V19.4793C11.4728 19.4255 11.4648 19.3844 11.4488 19.3561C11.4333 19.3275 11.402 19.3131 11.3549 19.3131C11.3242 19.3131 11.2963 19.3219 11.2711 19.3394C11.2459 19.3565 11.2274 19.3802 11.2156 19.4105C11.2072 19.4348 11.203 19.4803 11.203 19.5468V19.7512C11.203 19.7843 11.1948 19.8092 11.1784 19.8259C11.1625 19.8423 11.1417 19.8504 11.116 19.8504C11.0913 19.8504 11.0709 19.8419 11.0549 19.8247C11.0389 19.8076 11.031 19.7831 11.031 19.7512V19.2796C11.031 19.2486 11.0381 19.2254 11.0524 19.2103C11.0667 19.1948 11.0862 19.187 11.111 19.187C11.1261 19.187 11.1398 19.1904 11.152 19.1972C11.1642 19.2039 11.1738 19.2141 11.181 19.2276C11.1885 19.2412 11.1923 19.2577 11.1923 19.2772Z" fill="#010316"/>
<path d="M12.6929 19.637C12.6929 19.6821 12.6814 19.7207 12.6582 19.753C12.6351 19.7849 12.6009 19.8092 12.5555 19.8259C12.5106 19.8423 12.4557 19.8504 12.391 19.8504C12.3293 19.8504 12.2763 19.8415 12.2322 19.8235C12.1881 19.8056 12.1555 19.7833 12.1345 19.7566C12.1135 19.7295 12.103 19.7024 12.103 19.6753C12.103 19.6574 12.1097 19.642 12.1232 19.6293C12.1366 19.6165 12.1536 19.6102 12.1742 19.6102C12.1923 19.6102 12.2062 19.6143 12.2158 19.6227C12.2255 19.6311 12.2347 19.6428 12.2435 19.658C12.2612 19.6871 12.2822 19.7088 12.3066 19.7231C12.3314 19.7375 12.365 19.7446 12.4074 19.7446C12.4419 19.7446 12.47 19.7375 12.4919 19.7231C12.5141 19.7084 12.5253 19.6916 12.5253 19.6729C12.5253 19.6442 12.5137 19.6233 12.4906 19.6102C12.4679 19.597 12.4303 19.5845 12.3778 19.5725C12.3185 19.5586 12.2702 19.544 12.2328 19.5289C12.1959 19.5133 12.1662 19.493 12.144 19.4679C12.1217 19.4428 12.1106 19.4119 12.1106 19.3753C12.1106 19.3426 12.1209 19.3117 12.1414 19.2826C12.162 19.2535 12.1923 19.2304 12.2322 19.2133C12.2725 19.1958 12.3211 19.187 12.3778 19.187C12.4223 19.187 12.4622 19.1914 12.4975 19.2001C12.5332 19.2089 12.5629 19.2207 12.5864 19.2354C12.6103 19.2502 12.6284 19.2665 12.6406 19.2844C12.6532 19.3023 12.6595 19.3199 12.6595 19.337C12.6595 19.3557 12.6528 19.3711 12.6393 19.383C12.6263 19.395 12.6076 19.401 12.5832 19.401C12.5656 19.401 12.5505 19.3962 12.5379 19.3866C12.5257 19.3771 12.5116 19.3627 12.4956 19.3436C12.4826 19.3276 12.4673 19.3149 12.4496 19.3053C12.432 19.2958 12.408 19.291 12.3778 19.291C12.3467 19.291 12.3209 19.2974 12.3003 19.3101C12.2797 19.3225 12.2694 19.338 12.2694 19.3567C12.2694 19.3739 12.277 19.388 12.2921 19.3992C12.3072 19.4099 12.3276 19.4189 12.3532 19.4261C12.3788 19.4332 12.4141 19.442 12.4591 19.4524C12.5125 19.4647 12.5559 19.4795 12.5896 19.4966C12.6236 19.5137 12.6492 19.534 12.6664 19.5576C12.6841 19.5807 12.6929 19.6072 12.6929 19.637Z" fill="#010316"/>
<path d="M13.4826 19.5187C13.4826 19.5673 13.4746 19.6121 13.4587 19.6532C13.4427 19.6942 13.4196 19.7295 13.3893 19.759C13.3591 19.7885 13.3229 19.8112 13.2809 19.8271C13.2389 19.8427 13.1916 19.8504 13.1391 19.8504C13.087 19.8504 13.0402 19.8425 12.9986 19.8265C12.957 19.8106 12.9208 19.7879 12.8902 19.7584C12.8599 19.7285 12.8368 19.6934 12.8208 19.6532C12.8053 19.6125 12.7975 19.5677 12.7975 19.5187C12.7975 19.4693 12.8055 19.4241 12.8215 19.383C12.8374 19.342 12.8603 19.3069 12.8902 19.2778C12.92 19.2488 12.9561 19.2264 12.9986 19.2109C13.041 19.195 13.0879 19.187 13.1391 19.187C13.1912 19.187 13.2385 19.195 13.2809 19.2109C13.3234 19.2268 13.3597 19.2496 13.39 19.279C13.4202 19.3085 13.4431 19.3436 13.4587 19.3842C13.4746 19.4249 13.4826 19.4697 13.4826 19.5187ZM13.3099 19.5187C13.3099 19.4522 13.2944 19.4004 13.2633 19.3633C13.2326 19.3263 13.1912 19.3077 13.1391 19.3077C13.1055 19.3077 13.0759 19.3161 13.0503 19.3328C13.0246 19.3492 13.0049 19.3735 12.991 19.4057C12.9771 19.438 12.9702 19.4757 12.9702 19.5187C12.9702 19.5613 12.9769 19.5986 12.9904 19.6305C13.0042 19.6624 13.0238 19.6869 13.049 19.704C13.0746 19.7207 13.1047 19.7291 13.1391 19.7291C13.1912 19.7291 13.2326 19.7106 13.2633 19.6735C13.2944 19.6361 13.3099 19.5845 13.3099 19.5187Z" fill="#010316"/>
<path d="M13.6187 19.7512V19.0436C13.6187 19.0109 13.6263 18.9862 13.6414 18.9694C13.657 18.9527 13.6778 18.9443 13.7038 18.9443C13.7299 18.9443 13.7509 18.9527 13.7668 18.9694C13.7828 18.9858 13.7908 19.0105 13.7908 19.0436V19.7512C13.7908 19.7843 13.7826 19.8092 13.7662 19.8259C13.7502 19.8423 13.7294 19.8504 13.7038 19.8504C13.6786 19.8504 13.658 19.8419 13.6421 19.8247C13.6265 19.8076 13.6187 19.7831 13.6187 19.7512Z" fill="#010316"/>
<path d="M14.416 19.7584V19.7375C14.3954 19.7622 14.3738 19.7829 14.3511 19.7996C14.3284 19.8164 14.3036 19.8287 14.2767 19.8367C14.2498 19.845 14.2191 19.8492 14.1847 19.8492C14.1431 19.8492 14.1057 19.8411 14.0725 19.8247C14.0397 19.8084 14.0143 19.7859 13.9962 19.7572C13.9748 19.7225 13.9641 19.6727 13.9641 19.6078V19.2844C13.9641 19.2517 13.9719 19.2274 13.9874 19.2115C14.003 19.1952 14.0236 19.187 14.0492 19.187C14.0752 19.187 14.0962 19.1952 14.1122 19.2115C14.1282 19.2278 14.1362 19.2521 14.1362 19.2844V19.5456C14.1362 19.5835 14.1395 19.6153 14.1462 19.6412C14.153 19.6667 14.1649 19.6869 14.1822 19.7016C14.1998 19.7159 14.2236 19.7231 14.2534 19.7231C14.2824 19.7231 14.3097 19.7149 14.3353 19.6986C14.3609 19.6823 14.3796 19.661 14.3914 19.6347C14.4011 19.6115 14.4059 19.5609 14.4059 19.4828V19.2844C14.4059 19.2521 14.4139 19.2278 14.4299 19.2115C14.4458 19.1952 14.4666 19.187 14.4922 19.187C14.5179 19.187 14.5385 19.1952 14.554 19.2115C14.5696 19.2274 14.5773 19.2517 14.5773 19.2844V19.7572C14.5773 19.7883 14.5698 19.8116 14.5546 19.8271C14.5399 19.8427 14.5208 19.8504 14.4973 19.8504C14.4738 19.8504 14.4542 19.8425 14.4387 19.8265C14.4236 19.8102 14.416 19.7875 14.416 19.7584Z" fill="#010316"/>
<path d="M14.7588 19.2013H14.7777V19.1033C14.7777 19.077 14.7784 19.0565 14.7796 19.0418C14.7813 19.0266 14.7855 19.0137 14.7922 19.0029C14.799 18.9918 14.8086 18.9828 14.8212 18.976C14.8338 18.9688 14.8479 18.9653 14.8635 18.9653C14.8853 18.9653 14.9051 18.973 14.9227 18.9886C14.9345 18.9989 14.9418 19.0117 14.9448 19.0268C14.9481 19.0416 14.9498 19.0627 14.9498 19.0902V19.2013H15.0128C15.0372 19.2013 15.0557 19.2069 15.0683 19.2181C15.0813 19.2288 15.0878 19.2428 15.0878 19.2599C15.0878 19.2818 15.0786 19.2972 15.0601 19.3059C15.042 19.3147 15.016 19.3191 14.9819 19.3191H14.9498V19.6191C14.9498 19.6446 14.9506 19.6643 14.9523 19.6783C14.9544 19.6918 14.9595 19.703 14.9675 19.7118C14.9759 19.7201 14.9893 19.7243 15.0078 19.7243C15.0179 19.7243 15.0315 19.7227 15.0488 19.7195C15.066 19.7159 15.0794 19.7142 15.0891 19.7142C15.103 19.7142 15.1153 19.7195 15.1263 19.7303C15.1376 19.7406 15.1433 19.7536 15.1433 19.7691C15.1433 19.7954 15.1282 19.8156 15.0979 19.8295C15.0677 19.8434 15.0242 19.8504 14.9675 19.8504C14.9137 19.8504 14.8729 19.8419 14.8452 19.8247C14.8175 19.8076 14.7992 19.7839 14.7904 19.7536C14.7819 19.7233 14.7777 19.6829 14.7777 19.6323V19.3191H14.7551C14.7303 19.3191 14.7114 19.3135 14.6983 19.3023C14.6853 19.2912 14.6788 19.277 14.6788 19.2599C14.6788 19.2428 14.6855 19.2288 14.699 19.2181C14.7128 19.2069 14.7328 19.2013 14.7588 19.2013Z" fill="#010316"/>
<path d="M15.379 19.2796V19.7512C15.379 19.7839 15.3708 19.8086 15.3544 19.8253C15.338 19.8421 15.3172 19.8504 15.292 19.8504C15.2668 19.8504 15.2462 19.8419 15.2303 19.8247C15.2147 19.8076 15.2069 19.7831 15.2069 19.7512V19.2844C15.2069 19.2521 15.2147 19.2278 15.2303 19.2115C15.2462 19.1952 15.2668 19.187 15.292 19.187C15.3172 19.187 15.338 19.1952 15.3544 19.2115C15.3708 19.2278 15.379 19.2505 15.379 19.2796ZM15.2939 19.1111C15.27 19.1111 15.2494 19.1041 15.2322 19.0902C15.2153 19.0762 15.2069 19.0565 15.2069 19.031C15.2069 19.0079 15.2156 18.989 15.2328 18.9742C15.2504 18.9591 15.2708 18.9515 15.2939 18.9515C15.3162 18.9515 15.3359 18.9583 15.3532 18.9718C15.3704 18.9854 15.379 19.0051 15.379 19.031C15.379 19.0561 15.3706 19.0758 15.3538 19.0902C15.337 19.1041 15.317 19.1111 15.2939 19.1111Z" fill="#010316"/>
<path d="M16.2015 19.5187C16.2015 19.5673 16.1935 19.6121 16.1775 19.6532C16.1615 19.6942 16.1384 19.7295 16.1082 19.759C16.0779 19.7885 16.0418 19.8112 15.9998 19.8271C15.9578 19.8427 15.9105 19.8504 15.858 19.8504C15.8059 19.8504 15.759 19.8425 15.7174 19.8265C15.6758 19.8106 15.6397 19.7879 15.609 19.7584C15.5788 19.7285 15.5557 19.6934 15.5397 19.6532C15.5242 19.6125 15.5164 19.5677 15.5164 19.5187C15.5164 19.4693 15.5244 19.4241 15.5403 19.383C15.5563 19.342 15.5792 19.3069 15.609 19.2778C15.6389 19.2488 15.675 19.2264 15.7174 19.2109C15.7599 19.195 15.8067 19.187 15.858 19.187C15.9101 19.187 15.9574 19.195 15.9998 19.2109C16.0422 19.2268 16.0786 19.2496 16.1088 19.279C16.1391 19.3085 16.162 19.3436 16.1775 19.3842C16.1935 19.4249 16.2015 19.4697 16.2015 19.5187ZM16.0288 19.5187C16.0288 19.4522 16.0132 19.4004 15.9821 19.3633C15.9515 19.3263 15.9101 19.3077 15.858 19.3077C15.8244 19.3077 15.7947 19.3161 15.7691 19.3328C15.7435 19.3492 15.7237 19.3735 15.7099 19.4057C15.696 19.438 15.6891 19.4757 15.6891 19.5187C15.6891 19.5613 15.6958 19.5986 15.7092 19.6305C15.7231 19.6624 15.7426 19.6869 15.7679 19.704C15.7935 19.7207 15.8235 19.7291 15.858 19.7291C15.9101 19.7291 15.9515 19.7106 15.9821 19.6735C16.0132 19.6361 16.0288 19.5845 16.0288 19.5187Z" fill="#010316"/>
<path d="M16.4939 19.2772V19.297C16.5241 19.2591 16.5571 19.2314 16.5928 19.2139C16.629 19.196 16.6704 19.187 16.717 19.187C16.7624 19.187 16.8029 19.1964 16.8386 19.2151C16.8744 19.2338 16.901 19.2603 16.9187 19.2946C16.93 19.3145 16.9374 19.336 16.9407 19.3591C16.9441 19.3822 16.9458 19.4117 16.9458 19.4476V19.7512C16.9458 19.7839 16.9378 19.8086 16.9218 19.8253C16.9063 19.8421 16.8859 19.8504 16.8607 19.8504C16.8351 19.8504 16.8143 19.8419 16.7983 19.8247C16.7823 19.8076 16.7744 19.7831 16.7744 19.7512V19.4793C16.7744 19.4255 16.7664 19.3844 16.7504 19.3561C16.7349 19.3275 16.7036 19.3131 16.6565 19.3131C16.6258 19.3131 16.5979 19.3219 16.5727 19.3394C16.5475 19.3565 16.529 19.3802 16.5172 19.4105C16.5088 19.4348 16.5046 19.4803 16.5046 19.5468V19.7512C16.5046 19.7843 16.4964 19.8092 16.48 19.8259C16.4641 19.8423 16.4433 19.8504 16.4176 19.8504C16.3928 19.8504 16.3725 19.8419 16.3565 19.8247C16.3405 19.8076 16.3326 19.7831 16.3326 19.7512V19.2796C16.3326 19.2486 16.3397 19.2254 16.354 19.2103C16.3683 19.1948 16.3878 19.187 16.4126 19.187C16.4277 19.187 16.4414 19.1904 16.4536 19.1972C16.4657 19.2039 16.4754 19.2141 16.4826 19.2276C16.4901 19.2412 16.4939 19.2577 16.4939 19.2772Z" fill="#010316"/>
<path d="M17.6718 19.637C17.6718 19.6821 17.6603 19.7207 17.6372 19.753C17.614 19.7849 17.5798 19.8092 17.5344 19.8259C17.4895 19.8423 17.4346 19.8504 17.3699 19.8504C17.3082 19.8504 17.2552 19.8415 17.2111 19.8235C17.167 19.8056 17.1344 19.7833 17.1134 19.7566C17.0924 19.7295 17.0819 19.7024 17.0819 19.6753C17.0819 19.6574 17.0886 19.642 17.1021 19.6293C17.1155 19.6165 17.1325 19.6102 17.1531 19.6102C17.1712 19.6102 17.1851 19.6143 17.1947 19.6227C17.2044 19.6311 17.2136 19.6428 17.2225 19.658C17.2401 19.6871 17.2611 19.7088 17.2855 19.7231C17.3103 19.7375 17.3439 19.7446 17.3863 19.7446C17.4208 19.7446 17.4489 19.7375 17.4708 19.7231C17.493 19.7084 17.5042 19.6916 17.5042 19.6729C17.5042 19.6442 17.4926 19.6233 17.4695 19.6102C17.4468 19.597 17.4092 19.5845 17.3567 19.5725C17.2975 19.5586 17.2491 19.544 17.2117 19.5289C17.1748 19.5133 17.1451 19.493 17.1229 19.4679C17.1006 19.4428 17.0895 19.4119 17.0895 19.3753C17.0895 19.3426 17.0998 19.3117 17.1204 19.2826C17.1409 19.2535 17.1712 19.2304 17.2111 19.2133C17.2514 19.1958 17.3 19.187 17.3567 19.187C17.4012 19.187 17.4411 19.1914 17.4764 19.2001C17.5122 19.2089 17.5418 19.2207 17.5653 19.2354C17.5893 19.2502 17.6073 19.2665 17.6195 19.2844C17.6321 19.3023 17.6384 19.3199 17.6384 19.337C17.6384 19.3557 17.6317 19.3711 17.6182 19.383C17.6052 19.395 17.5865 19.401 17.5622 19.401C17.5445 19.401 17.5294 19.3962 17.5168 19.3866C17.5046 19.3771 17.4905 19.3627 17.4746 19.3436C17.4615 19.3276 17.4462 19.3149 17.4285 19.3053C17.4109 19.2958 17.3869 19.291 17.3567 19.291C17.3256 19.291 17.2998 19.2974 17.2792 19.3101C17.2586 19.3225 17.2483 19.338 17.2483 19.3567C17.2483 19.3739 17.2559 19.388 17.271 19.3992C17.2861 19.4099 17.3065 19.4189 17.3321 19.4261C17.3577 19.4332 17.393 19.442 17.438 19.4524C17.4914 19.4647 17.5348 19.4795 17.5685 19.4966C17.6025 19.5137 17.6281 19.534 17.6453 19.5576C17.663 19.5807 17.6718 19.6072 17.6718 19.637Z" fill="#010316"/>
<path d="M18.575 19.7584C18.5334 19.7891 18.493 19.8122 18.4539 19.8277C18.4153 19.8429 18.3718 19.8504 18.3235 19.8504C18.2794 19.8504 18.2405 19.8423 18.2069 19.8259C18.1737 19.8092 18.1481 19.7867 18.13 19.7584C18.1119 19.7301 18.1029 19.6994 18.1029 19.6663C18.1029 19.6217 18.1178 19.5837 18.1476 19.5522C18.1775 19.5207 18.2184 19.4996 18.2705 19.4888C18.2815 19.4864 18.3086 19.4811 18.3518 19.4727C18.3951 19.4643 18.4321 19.4567 18.4628 19.45C18.4939 19.4428 18.5275 19.4342 18.5636 19.4243C18.5615 19.3812 18.5523 19.3498 18.5359 19.3298C18.5199 19.3095 18.4865 19.2994 18.4357 19.2994C18.392 19.2994 18.359 19.3051 18.3367 19.3167C18.3149 19.3282 18.296 19.3456 18.28 19.3687C18.2645 19.3918 18.2533 19.4071 18.2466 19.4147C18.2403 19.4219 18.2264 19.4255 18.205 19.4255C18.1857 19.4255 18.1689 19.4197 18.1546 19.4081C18.1407 19.3962 18.1338 19.381 18.1338 19.3627C18.1338 19.334 18.1445 19.3061 18.1659 19.279C18.1874 19.2519 18.2208 19.2296 18.2661 19.2121C18.3115 19.1946 18.368 19.1858 18.4357 19.1858C18.5113 19.1858 18.5708 19.1944 18.614 19.2115C18.6573 19.2282 18.6878 19.2549 18.7054 19.2916C18.7235 19.3282 18.7325 19.3769 18.7325 19.4374C18.7325 19.4757 18.7323 19.5081 18.7319 19.5348C18.7319 19.5615 18.7317 19.5912 18.7313 19.6239C18.7313 19.6546 18.7365 19.6867 18.747 19.7201C18.7579 19.7532 18.7634 19.7745 18.7634 19.7841C18.7634 19.8008 18.755 19.8162 18.7382 19.8301C18.7218 19.8436 18.7031 19.8504 18.6821 19.8504C18.6644 19.8504 18.647 19.8427 18.6298 19.8271C18.6126 19.8112 18.5943 19.7883 18.575 19.7584ZM18.5636 19.5223C18.5384 19.5311 18.5016 19.5404 18.4533 19.5504C18.4054 19.5599 18.3722 19.5671 18.3537 19.5719C18.3353 19.5763 18.3176 19.5853 18.3008 19.5988C18.284 19.6119 18.2756 19.6305 18.2756 19.6544C18.2756 19.6791 18.2855 19.7002 18.3052 19.7177C18.325 19.7349 18.3508 19.7434 18.3827 19.7434C18.4168 19.7434 18.4481 19.7365 18.4766 19.7225C18.5056 19.7082 18.5268 19.6898 18.5403 19.6675C18.5558 19.6428 18.5636 19.6022 18.5636 19.5456V19.5223Z" fill="#010316"/>
<path d="M19.064 19.2772V19.297C19.0943 19.2591 19.1273 19.2314 19.163 19.2139C19.1991 19.196 19.2405 19.187 19.2871 19.187C19.3325 19.187 19.373 19.1964 19.4088 19.2151C19.4445 19.2338 19.4712 19.2603 19.4888 19.2946C19.5001 19.3145 19.5075 19.336 19.5109 19.3591C19.5142 19.3822 19.5159 19.4117 19.5159 19.4476V19.7512C19.5159 19.7839 19.5079 19.8086 19.492 19.8253C19.4764 19.8421 19.456 19.8504 19.4308 19.8504C19.4052 19.8504 19.3844 19.8419 19.3684 19.8247C19.3525 19.8076 19.3445 19.7831 19.3445 19.7512V19.4793C19.3445 19.4255 19.3365 19.3844 19.3205 19.3561C19.305 19.3275 19.2737 19.3131 19.2266 19.3131C19.196 19.3131 19.168 19.3219 19.1428 19.3394C19.1176 19.3565 19.0991 19.3802 19.0873 19.4105C19.0789 19.4348 19.0747 19.4803 19.0747 19.5468V19.7512C19.0747 19.7843 19.0665 19.8092 19.0502 19.8259C19.0342 19.8423 19.0134 19.8504 18.9878 19.8504C18.963 19.8504 18.9426 19.8419 18.9266 19.8247C18.9107 19.8076 18.9027 19.7831 18.9027 19.7512V19.2796C18.9027 19.2486 18.9098 19.2254 18.9241 19.2103C18.9384 19.1948 18.9579 19.187 18.9827 19.187C18.9978 19.187 19.0115 19.1904 19.0237 19.1972C19.0359 19.2039 19.0455 19.2141 19.0527 19.2276C19.0602 19.2412 19.064 19.2577 19.064 19.2772Z" fill="#010316"/>
<path d="M20.1594 19.7572V19.741C20.1363 19.7661 20.1134 19.7867 20.0907 19.8026C20.0684 19.8181 20.044 19.8299 20.0176 19.8379C19.9915 19.8462 19.963 19.8504 19.9319 19.8504C19.8907 19.8504 19.8525 19.8423 19.8172 19.8259C19.7823 19.8092 19.752 19.7855 19.7264 19.7548C19.7008 19.7241 19.6812 19.6881 19.6678 19.6466C19.6548 19.6052 19.6483 19.5603 19.6483 19.5121C19.6483 19.4101 19.6745 19.3306 19.727 19.2737C19.7796 19.2167 19.8487 19.1882 19.9344 19.1882C19.984 19.1882 20.0258 19.1964 20.0598 19.2127C20.0938 19.2286 20.127 19.2533 20.1594 19.2868V19.0459C20.1594 19.0125 20.1663 18.9872 20.1802 18.97C20.1945 18.9529 20.2146 18.9443 20.2407 18.9443C20.2667 18.9443 20.2867 18.9523 20.3006 18.9682C20.3148 18.9838 20.322 19.0069 20.322 19.0376V19.7572C20.322 19.7883 20.3144 19.8116 20.2993 19.8271C20.2842 19.8427 20.2646 19.8504 20.2407 19.8504C20.2172 19.8504 20.1976 19.8425 20.1821 19.8265C20.1669 19.8102 20.1594 19.7871 20.1594 19.7572ZM19.8209 19.5175C19.8209 19.5617 19.8281 19.5994 19.8424 19.6305C19.8571 19.6616 19.877 19.6851 19.9022 19.701C19.9275 19.7165 19.955 19.7243 19.9848 19.7243C20.0151 19.7243 20.0426 19.7169 20.0674 19.7022C20.0926 19.6871 20.1125 19.6641 20.1272 19.6335C20.1424 19.6024 20.1499 19.5637 20.1499 19.5175C20.1499 19.4741 20.1424 19.4368 20.1272 19.4057C20.1125 19.3743 20.0924 19.3504 20.0667 19.334C20.0415 19.3173 20.0138 19.3089 19.9835 19.3089C19.952 19.3089 19.9239 19.3175 19.8991 19.3346C19.8743 19.3514 19.855 19.3757 19.8411 19.4075C19.8277 19.439 19.8209 19.4757 19.8209 19.5175Z" fill="#010316"/>
<path d="M21.4344 19.6484C21.4344 19.6687 21.4278 19.6904 21.4148 19.7136C21.4022 19.7367 21.3827 19.7588 21.3562 19.7799C21.3302 19.8006 21.2972 19.8174 21.2573 19.8301C21.2173 19.8429 21.1724 19.8492 21.1224 19.8492C21.0161 19.8492 20.9331 19.8199 20.8734 19.7614C20.8138 19.7024 20.7839 19.6235 20.7839 19.5247C20.7839 19.4577 20.7976 19.3986 20.8249 19.3472C20.8522 19.2958 20.8917 19.2561 20.9434 19.2282C20.9951 19.1999 21.0568 19.1858 21.1287 19.1858C21.1732 19.1858 21.214 19.192 21.251 19.2043C21.2884 19.2167 21.3199 19.2326 21.3455 19.2521C21.3715 19.2717 21.3913 19.2926 21.4047 19.3149C21.4186 19.3368 21.4255 19.3573 21.4255 19.3765C21.4255 19.396 21.4178 19.4125 21.4022 19.4261C21.3871 19.4396 21.3686 19.4464 21.3468 19.4464C21.3325 19.4464 21.3205 19.443 21.3108 19.4362C21.3016 19.4291 21.2911 19.4177 21.2793 19.4022C21.2583 19.3719 21.2363 19.3492 21.2131 19.334C21.1905 19.3189 21.1615 19.3113 21.1262 19.3113C21.0753 19.3113 21.0344 19.3302 21.0033 19.3681C20.9722 19.4055 20.9566 19.4569 20.9566 19.5223C20.9566 19.553 20.9606 19.5813 20.9686 19.6072C20.9766 19.6327 20.9881 19.6546 21.0033 19.6729C21.0184 19.6908 21.0367 19.7046 21.0581 19.7142C21.0795 19.7233 21.1031 19.7279 21.1287 19.7279C21.1631 19.7279 21.1926 19.7203 21.2169 19.7052C21.2417 19.69 21.2636 19.6669 21.2825 19.6359C21.293 19.6175 21.3043 19.6032 21.3165 19.5928C21.3287 19.5825 21.3436 19.5773 21.3612 19.5773C21.3823 19.5773 21.3997 19.5849 21.4136 19.6C21.4274 19.6151 21.4344 19.6313 21.4344 19.6484Z" fill="#010316"/>
<path d="M22.2291 19.5187C22.2291 19.5673 22.2211 19.6121 22.2051 19.6532C22.1892 19.6942 22.1661 19.7295 22.1358 19.759C22.1056 19.7885 22.0694 19.8112 22.0274 19.8271C21.9854 19.8427 21.9381 19.8504 21.8856 19.8504C21.8335 19.8504 21.7867 19.8425 21.7451 19.8265C21.7035 19.8106 21.6673 19.7879 21.6367 19.7584C21.6064 19.7285 21.5833 19.6934 21.5673 19.6532C21.5518 19.6125 21.544 19.5677 21.544 19.5187C21.544 19.4693 21.552 19.4241 21.568 19.383C21.5839 19.342 21.6068 19.3069 21.6367 19.2778C21.6665 19.2488 21.7026 19.2264 21.7451 19.2109C21.7875 19.195 21.8344 19.187 21.8856 19.187C21.9377 19.187 21.985 19.195 22.0274 19.2109C22.0699 19.2268 22.1062 19.2496 22.1364 19.279C22.1667 19.3085 22.1896 19.3436 22.2051 19.3842C22.2211 19.4249 22.2291 19.4697 22.2291 19.5187ZM22.0564 19.5187C22.0564 19.4522 22.0409 19.4004 22.0098 19.3633C21.9791 19.3263 21.9377 19.3077 21.8856 19.3077C21.852 19.3077 21.8224 19.3161 21.7967 19.3328C21.7711 19.3492 21.7514 19.3735 21.7375 19.4057C21.7236 19.438 21.7167 19.4757 21.7167 19.5187C21.7167 19.5613 21.7234 19.5986 21.7369 19.6305C21.7507 19.6624 21.7703 19.6869 21.7955 19.704C21.8211 19.7207 21.8512 19.7291 21.8856 19.7291C21.9377 19.7291 21.9791 19.7106 22.0098 19.6735C22.0409 19.6361 22.0564 19.5845 22.0564 19.5187Z" fill="#010316"/>
<path d="M22.5215 19.2772V19.297C22.5518 19.2591 22.5848 19.2314 22.6205 19.2139C22.6566 19.196 22.698 19.187 22.7446 19.187C22.79 19.187 22.8306 19.1964 22.8663 19.2151C22.902 19.2338 22.9287 19.2603 22.9463 19.2946C22.9577 19.3145 22.965 19.336 22.9684 19.3591C22.9717 19.3822 22.9734 19.4117 22.9734 19.4476V19.7512C22.9734 19.7839 22.9654 19.8086 22.9495 19.8253C22.9339 19.8421 22.9135 19.8504 22.8883 19.8504C22.8627 19.8504 22.8419 19.8419 22.8259 19.8247C22.81 19.8076 22.802 19.7831 22.802 19.7512V19.4793C22.802 19.4255 22.794 19.3844 22.778 19.3561C22.7625 19.3275 22.7312 19.3131 22.6841 19.3131C22.6535 19.3131 22.6255 19.3219 22.6003 19.3394C22.5751 19.3565 22.5566 19.3802 22.5448 19.4105C22.5364 19.4348 22.5322 19.4803 22.5322 19.5468V19.7512C22.5322 19.7843 22.524 19.8092 22.5077 19.8259C22.4917 19.8423 22.4709 19.8504 22.4453 19.8504C22.4205 19.8504 22.4001 19.8419 22.3841 19.8247C22.3682 19.8076 22.3602 19.7831 22.3602 19.7512V19.2796C22.3602 19.2486 22.3673 19.2254 22.3816 19.2103C22.3959 19.1948 22.4154 19.187 22.4402 19.187C22.4553 19.187 22.469 19.1904 22.4812 19.1972C22.4934 19.2039 22.503 19.2141 22.5102 19.2276C22.5177 19.2412 22.5215 19.2577 22.5215 19.2772Z" fill="#010316"/>
<path d="M23.6994 19.637C23.6994 19.6821 23.6879 19.7207 23.6648 19.753C23.6417 19.7849 23.6074 19.8092 23.5621 19.8259C23.5171 19.8423 23.4623 19.8504 23.3976 19.8504C23.3358 19.8504 23.2829 19.8415 23.2387 19.8235C23.1946 19.8056 23.1621 19.7833 23.1411 19.7566C23.12 19.7295 23.1095 19.7024 23.1095 19.6753C23.1095 19.6574 23.1163 19.642 23.1297 19.6293C23.1432 19.6165 23.1602 19.6102 23.1808 19.6102C23.1988 19.6102 23.2127 19.6143 23.2224 19.6227C23.232 19.6311 23.2413 19.6428 23.2501 19.658C23.2677 19.6871 23.2887 19.7088 23.3131 19.7231C23.3379 19.7375 23.3715 19.7446 23.4139 19.7446C23.4484 19.7446 23.4765 19.7375 23.4984 19.7231C23.5207 19.7084 23.5318 19.6916 23.5318 19.6729C23.5318 19.6442 23.5202 19.6233 23.4971 19.6102C23.4744 19.597 23.4368 19.5845 23.3843 19.5725C23.3251 19.5586 23.2768 19.544 23.2394 19.5289C23.2024 19.5133 23.1728 19.493 23.1505 19.4679C23.1282 19.4428 23.1171 19.4119 23.1171 19.3753C23.1171 19.3426 23.1274 19.3117 23.148 19.2826C23.1686 19.2535 23.1988 19.2304 23.2387 19.2133C23.2791 19.1958 23.3276 19.187 23.3843 19.187C23.4289 19.187 23.4688 19.1914 23.5041 19.2001C23.5398 19.2089 23.5694 19.2207 23.5929 19.2354C23.6169 19.2502 23.635 19.2665 23.6471 19.2844C23.6597 19.3023 23.666 19.3199 23.666 19.337C23.666 19.3557 23.6593 19.3711 23.6459 19.383C23.6329 19.395 23.6142 19.401 23.5898 19.401C23.5721 19.401 23.557 19.3962 23.5444 19.3866C23.5322 19.3771 23.5181 19.3627 23.5022 19.3436C23.4892 19.3276 23.4738 19.3149 23.4562 19.3053C23.4385 19.2958 23.4146 19.291 23.3843 19.291C23.3532 19.291 23.3274 19.2974 23.3068 19.3101C23.2862 19.3225 23.2759 19.338 23.2759 19.3567C23.2759 19.3739 23.2835 19.388 23.2986 19.3992C23.3137 19.4099 23.3341 19.4189 23.3597 19.4261C23.3854 19.4332 23.4207 19.442 23.4656 19.4524C23.519 19.4647 23.5625 19.4795 23.5961 19.4966C23.6301 19.5137 23.6557 19.534 23.673 19.5576C23.6906 19.5807 23.6994 19.6072 23.6994 19.637Z" fill="#010316"/>
<path d="M24.2919 19.7584V19.7375C24.2713 19.7622 24.2496 19.7829 24.227 19.7996C24.2043 19.8164 24.1795 19.8287 24.1526 19.8367C24.1257 19.845 24.095 19.8492 24.0606 19.8492C24.019 19.8492 23.9816 19.8411 23.9484 19.8247C23.9156 19.8084 23.8902 19.7859 23.8721 19.7572C23.8507 19.7225 23.84 19.6727 23.84 19.6078V19.2844C23.84 19.2517 23.8478 19.2274 23.8633 19.2115C23.8789 19.1952 23.8994 19.187 23.9251 19.187C23.9511 19.187 23.9721 19.1952 23.9881 19.2115C24.0041 19.2278 24.012 19.2521 24.012 19.2844V19.5456C24.012 19.5835 24.0154 19.6153 24.0221 19.6412C24.0289 19.6667 24.0408 19.6869 24.0581 19.7016C24.0757 19.7159 24.0994 19.7231 24.1293 19.7231C24.1583 19.7231 24.1856 19.7149 24.2112 19.6986C24.2368 19.6823 24.2555 19.661 24.2673 19.6347C24.277 19.6115 24.2818 19.5609 24.2818 19.4828V19.2844C24.2818 19.2521 24.2898 19.2278 24.3057 19.2115C24.3217 19.1952 24.3425 19.187 24.3681 19.187C24.3938 19.187 24.4144 19.1952 24.4299 19.2115C24.4454 19.2274 24.4532 19.2517 24.4532 19.2844V19.7572C24.4532 19.7883 24.4457 19.8116 24.4305 19.8271C24.4158 19.8427 24.3967 19.8504 24.3732 19.8504C24.3496 19.8504 24.3301 19.8425 24.3146 19.8265C24.2994 19.8102 24.2919 19.7875 24.2919 19.7584Z" fill="#010316"/>
<path d="M24.6253 19.7512V19.0436C24.6253 19.0109 24.6328 18.9862 24.648 18.9694C24.6635 18.9527 24.6843 18.9443 24.7104 18.9443C24.7364 18.9443 24.7574 18.9527 24.7734 18.9694C24.7893 18.9858 24.7973 19.0105 24.7973 19.0436V19.7512C24.7973 19.7843 24.7891 19.8092 24.7727 19.8259C24.7568 19.8423 24.736 19.8504 24.7104 19.8504C24.6851 19.8504 24.6646 19.8419 24.6486 19.8247C24.633 19.8076 24.6253 19.7831 24.6253 19.7512Z" fill="#010316"/>
<path d="M24.9851 19.2013H25.004V19.1033C25.004 19.077 25.0047 19.0565 25.0059 19.0418C25.0076 19.0266 25.0118 19.0137 25.0185 19.0029C25.0253 18.9918 25.0349 18.9828 25.0475 18.976C25.0601 18.9688 25.0742 18.9653 25.0898 18.9653C25.1116 18.9653 25.1314 18.973 25.149 18.9886C25.1608 18.9989 25.1681 19.0117 25.1711 19.0268C25.1744 19.0416 25.1761 19.0627 25.1761 19.0902V19.2013H25.2391C25.2635 19.2013 25.282 19.2069 25.2946 19.2181C25.3076 19.2288 25.3141 19.2428 25.3141 19.2599C25.3141 19.2818 25.3049 19.2972 25.2864 19.3059C25.2683 19.3147 25.2423 19.3191 25.2082 19.3191H25.1761V19.6191C25.1761 19.6446 25.1769 19.6643 25.1786 19.6783C25.1807 19.6918 25.1858 19.703 25.1937 19.7118C25.2022 19.7201 25.2156 19.7243 25.2341 19.7243C25.2442 19.7243 25.2578 19.7227 25.275 19.7195C25.2923 19.7159 25.3057 19.7142 25.3154 19.7142C25.3293 19.7142 25.3416 19.7195 25.3526 19.7303C25.3639 19.7406 25.3696 19.7536 25.3696 19.7691C25.3696 19.7954 25.3545 19.8156 25.3242 19.8295C25.294 19.8434 25.2505 19.8504 25.1937 19.8504C25.14 19.8504 25.0992 19.8419 25.0715 19.8247C25.0438 19.8076 25.0255 19.7839 25.0167 19.7536C25.0082 19.7233 25.004 19.6829 25.004 19.6323V19.3191H24.9814C24.9566 19.3191 24.9377 19.3135 24.9246 19.3023C24.9116 19.2912 24.9051 19.277 24.9051 19.2599C24.9051 19.2428 24.9118 19.2288 24.9253 19.2181C24.9391 19.2069 24.9591 19.2013 24.9851 19.2013Z" fill="#010316"/>
<path d="M25.6053 19.2796V19.7512C25.6053 19.7839 25.5971 19.8086 25.5807 19.8253C25.5643 19.8421 25.5435 19.8504 25.5183 19.8504C25.4931 19.8504 25.4725 19.8419 25.4566 19.8247C25.441 19.8076 25.4332 19.7831 25.4332 19.7512V19.2844C25.4332 19.2521 25.441 19.2278 25.4566 19.2115C25.4725 19.1952 25.4931 19.187 25.5183 19.187C25.5435 19.187 25.5643 19.1952 25.5807 19.2115C25.5971 19.2278 25.6053 19.2505 25.6053 19.2796ZM25.5202 19.1111C25.4963 19.1111 25.4757 19.1041 25.4584 19.0902C25.4416 19.0762 25.4332 19.0565 25.4332 19.031C25.4332 19.0079 25.4419 18.989 25.4591 18.9742C25.4767 18.9591 25.4971 18.9515 25.5202 18.9515C25.5425 18.9515 25.5622 18.9583 25.5795 18.9718C25.5967 18.9854 25.6053 19.0051 25.6053 19.031C25.6053 19.0561 25.5969 19.0758 25.5801 19.0902C25.5633 19.1041 25.5433 19.1111 25.5202 19.1111Z" fill="#010316"/>
<path d="M25.94 19.2772V19.297C25.9702 19.2591 26.0032 19.2314 26.0389 19.2139C26.075 19.196 26.1164 19.187 26.1631 19.187C26.2084 19.187 26.249 19.1964 26.2847 19.2151C26.3204 19.2338 26.3471 19.2603 26.3647 19.2946C26.3761 19.3145 26.3834 19.336 26.3868 19.3591C26.3902 19.3822 26.3918 19.4117 26.3918 19.4476V19.7512C26.3918 19.7839 26.3839 19.8086 26.3679 19.8253C26.3523 19.8421 26.332 19.8504 26.3068 19.8504C26.2811 19.8504 26.2603 19.8419 26.2444 19.8247C26.2284 19.8076 26.2204 19.7831 26.2204 19.7512V19.4793C26.2204 19.4255 26.2124 19.3844 26.1965 19.3561C26.1809 19.3275 26.1496 19.3131 26.1026 19.3131C26.0719 19.3131 26.0439 19.3219 26.0187 19.3394C25.9935 19.3565 25.975 19.3802 25.9633 19.4105C25.9549 19.4348 25.9507 19.4803 25.9507 19.5468V19.7512C25.9507 19.7843 25.9425 19.8092 25.9261 19.8259C25.9101 19.8423 25.8893 19.8504 25.8637 19.8504C25.8389 19.8504 25.8185 19.8419 25.8026 19.8247C25.7866 19.8076 25.7786 19.7831 25.7786 19.7512V19.2796C25.7786 19.2486 25.7858 19.2254 25.8 19.2103C25.8143 19.1948 25.8339 19.187 25.8587 19.187C25.8738 19.187 25.8874 19.1904 25.8996 19.1972C25.9118 19.2039 25.9215 19.2141 25.9286 19.2276C25.9362 19.2412 25.94 19.2577 25.94 19.2772Z" fill="#010316"/>
<path d="M27.1967 19.3065V19.7805C27.1967 19.8347 27.1906 19.8813 27.1784 19.9204C27.1662 19.9594 27.1467 19.9917 27.1198 20.0172C27.0929 20.0427 27.0576 20.0616 27.0139 20.074C26.9706 20.0863 26.9166 20.0925 26.8519 20.0925C26.7927 20.0925 26.7397 20.0845 26.6931 20.0686C26.6465 20.053 26.6105 20.0327 26.5853 20.0076C26.5601 19.9829 26.5475 19.9574 26.5475 19.9311C26.5475 19.9112 26.5546 19.8948 26.5689 19.8821C26.5832 19.8697 26.6004 19.8636 26.6206 19.8636C26.6458 19.8636 26.6679 19.8741 26.6868 19.8952C26.696 19.906 26.7055 19.9168 26.7152 19.9275C26.7252 19.9387 26.7362 19.948 26.7479 19.9556C26.7601 19.9636 26.7746 19.9694 26.7914 19.9729C26.8082 19.9769 26.8275 19.9789 26.8494 19.9789C26.8939 19.9789 26.9284 19.9729 26.9528 19.961C26.9775 19.9494 26.9948 19.9331 27.0044 19.912C27.0145 19.8909 27.0204 19.8682 27.0221 19.8438C27.0238 19.8199 27.025 19.7813 27.0259 19.7279C26.9994 19.763 26.9687 19.7897 26.9338 19.808C26.8994 19.8263 26.8582 19.8355 26.8103 19.8355C26.7528 19.8355 26.7023 19.8215 26.6591 19.7936C26.6162 19.7658 26.5832 19.7267 26.5601 19.6765C26.537 19.6263 26.5254 19.5683 26.5254 19.5026C26.5254 19.4536 26.5324 19.4093 26.5462 19.3699C26.5605 19.3304 26.5807 19.2972 26.6067 19.2701C26.6328 19.243 26.6628 19.2227 26.6969 19.2091C26.7309 19.1952 26.7683 19.1882 26.8091 19.1882C26.8578 19.1882 26.9 19.1972 26.9357 19.2151C26.9714 19.2326 27.0046 19.2603 27.0353 19.2982V19.276C27.0353 19.2478 27.0427 19.2258 27.0574 19.2103C27.0721 19.1948 27.091 19.187 27.1141 19.187C27.1473 19.187 27.1693 19.1974 27.1803 19.2181C27.1912 19.2384 27.1967 19.2679 27.1967 19.3065ZM26.6981 19.5133C26.6981 19.5795 26.7133 19.6295 26.7435 19.6633C26.7742 19.6972 26.8137 19.7142 26.862 19.7142C26.8906 19.7142 26.9175 19.707 26.9427 19.6926C26.9683 19.6779 26.9891 19.656 27.0051 19.6269C27.021 19.5974 27.029 19.5617 27.029 19.5199C27.029 19.4534 27.0135 19.4016 26.9824 19.3645C26.9517 19.3275 26.9112 19.3089 26.8607 19.3089C26.8116 19.3089 26.7721 19.3267 26.7423 19.3621C26.7128 19.3976 26.6981 19.448 26.6981 19.5133Z" fill="#010316"/>
</svg>
