<svg width="85" height="31" viewBox="0 0 85 31" fill="none" xmlns="http://www.w3.org/2000/svg">
<path fill-rule="evenodd" clip-rule="evenodd" d="M30.4703 9.3287V18.6574H32.7754H35.0805V15.0694C35.0805 12.7014 35.0805 11.4097 35.0805 11.2662C35.1525 10.9074 35.2246 10.5486 35.4407 10.2616C35.7288 9.75926 36.2331 9.54398 36.8093 9.61574C37.6017 9.6875 38.1059 10.1181 38.25 11.0509C38.25 11.1944 38.25 12.6296 38.25 14.9259V18.5857H40.5551H42.8602V14.2801C42.8602 10.6204 42.8602 9.90278 42.7881 9.54398C42.6441 8.25231 42.2119 7.24768 41.4195 6.53009C40.7712 5.88426 39.9788 5.52546 39.0424 5.38195C38.6822 5.31019 37.6737 5.38194 37.3856 5.4537C36.5212 5.66898 35.8729 5.95602 35.2966 6.60185L34.9364 6.88889V3.44444V0H32.6314H30.3263V9.3287H30.4703ZM79.4534 0.143519C79.3093 0.430556 74.6271 11.6968 74.6271 11.6968C74.6271 11.6968 75.8517 11.6968 77.3644 11.6968H80.1017L82.5509 5.88426C83.9195 2.65509 85 0 85 0C85 0 83.7754 0 82.2627 0H79.5254L79.4534 0.143519ZM20.3856 5.4537C19.3771 5.59722 18.5847 5.88426 17.7924 6.38658C16.2076 7.39121 15.1992 9.11343 14.911 11.1227C14.7669 12.0556 14.839 13.2037 15.0551 14.0648C15.6314 16.2894 17.1441 18.0116 19.089 18.6574C19.8093 18.8727 20.0975 18.9444 20.9619 18.9444C21.6102 18.9444 21.8263 18.9444 22.0424 18.8727C22.9788 18.6574 23.6271 18.2986 24.2034 17.7245L24.4915 17.4375V18.0116V18.5857H26.7246H28.9576V12.1273V5.66898H26.7246H24.4915V6.24306V6.81713L24.2754 6.60185C23.7712 6.02778 23.0508 5.66898 22.1144 5.4537C21.8263 5.38194 21.6822 5.38195 21.1059 5.38195C20.7458 5.4537 20.4576 5.4537 20.3856 5.4537ZM49.7754 5.4537C48.5508 5.59722 47.2542 6.1713 46.3178 6.88889C44.517 8.39583 43.5805 10.7639 43.9407 13.2037C44.3008 15.9306 46.2458 18.0116 48.9831 18.7292C49.5593 18.8727 50.1356 18.9444 50.8559 18.9444C52.1525 18.9444 53.089 18.7292 54.0975 18.2269C56.1144 17.2222 57.411 15.4282 57.6992 13.2037C57.7712 12.6296 57.7712 11.6968 57.6992 11.1944C57.5551 10.1181 57.1229 9.04167 56.4746 8.18056C56.1864 7.82176 55.6102 7.17593 55.25 6.88889C54.2415 6.09954 53.089 5.59722 51.7924 5.4537C51.2881 5.38194 50.2797 5.38194 49.7754 5.4537ZM64.4703 5.4537C63.2458 5.59722 62.0212 6.09954 61.0848 6.88889C60.7246 7.17593 60.0763 7.82176 59.8602 8.18056C59.2119 9.04167 58.8517 10.1181 58.6356 11.1944C58.5636 11.6968 58.5636 12.7014 58.6356 13.2037C59.0678 16.0741 61.1568 18.2986 64.0381 18.8727C64.6144 19.0162 64.9025 19.0162 65.5508 19.0162C66.7754 19.0162 67.8559 18.8009 68.8644 18.2269C71.5297 16.8634 72.9703 13.8495 72.322 10.7639C71.7458 7.89352 69.4407 5.8125 66.4873 5.4537C65.9831 5.38194 64.9746 5.38194 64.4703 5.4537ZM0 5.74074C0 5.74074 1.22458 8.68287 2.73729 12.2708C4.25 15.8588 5.47458 18.8009 5.47458 18.8009C5.47458 18.8009 5.04237 19.8773 4.4661 21.169C3.88983 22.4606 3.45763 23.4653 3.45763 23.537C3.45763 23.6088 4.53814 23.537 5.90678 23.537H8.35593L12.0297 14.7106C14.0466 9.83102 15.7034 5.88426 15.7034 5.8125C15.7034 5.8125 15.1992 5.74074 13.2542 5.8125H10.8051L9.29237 9.54398C8.64407 11.5532 7.99576 13.2755 7.99576 13.2755C7.99576 13.2755 7.34746 11.5532 6.48305 9.54398L5.04237 5.8125H2.52119C1.15254 5.74074 0 5.74074 0 5.74074ZM22.6186 9.61574C23.5551 9.83102 24.2754 10.5486 24.5636 11.4815C24.6356 11.8403 24.6356 12.4861 24.5636 12.8449C24.3475 13.7778 23.6271 14.4954 22.6907 14.7106C22.3305 14.7824 21.6822 14.7824 21.322 14.7106C20.5297 14.4954 19.8093 13.9213 19.5212 13.2037C19.161 12.4144 19.3051 11.4097 19.7373 10.6921C20.3856 9.75926 21.4661 9.40047 22.6186 9.61574ZM51.3602 9.6875C52.3686 9.83102 53.161 10.6204 53.3771 11.625C53.4492 11.9838 53.4492 12.5579 53.3771 12.9167C53.161 13.8495 52.4407 14.4954 51.5763 14.7824C51.2881 14.8542 50.4958 14.8542 50.2076 14.7824C49.4873 14.5671 48.911 14.0648 48.5508 13.419C48.3347 12.9884 48.3347 12.7731 48.3347 12.2708C48.3347 11.8403 48.4068 11.625 48.5508 11.2662C48.767 10.8356 49.0551 10.4051 49.4873 10.1181C49.9195 9.6875 50.6398 9.54398 51.3602 9.6875ZM65.9831 9.6875C66.8475 9.83102 67.5678 10.4051 67.8559 11.1944C68 11.5532 68.072 11.7685 68.072 12.1991C68.072 12.7014 68 12.9167 67.8559 13.3472C67.5678 13.9931 66.9195 14.4954 66.1992 14.7106C65.911 14.7824 65.1186 14.7824 64.8305 14.7106C63.9661 14.4954 63.2458 13.7778 63.0297 12.8449C62.9576 12.4861 62.9576 11.8403 63.0297 11.4815C63.3178 10.3333 64.3263 9.54398 65.4788 9.54398C65.6229 9.61574 65.839 9.61574 65.9831 9.6875ZM75.7797 12.8449C74.411 12.9884 73.4025 13.9931 73.1144 15.2847C73.0424 15.6435 73.0424 16.2894 73.1144 16.6481C73.4025 17.7963 74.267 18.5856 75.4195 18.8727C75.5636 18.8727 75.8517 18.9444 76.0678 18.9444C76.9322 18.9444 77.6525 18.6574 78.2288 18.0833C78.8771 17.4375 79.0932 16.7917 79.0932 15.9306C79.0932 14.8542 78.589 13.9213 77.7246 13.419C77.1483 12.9167 76.3559 12.7732 75.7797 12.8449ZM37.8178 19.8773C36.8814 20.1644 36.4492 21.2407 36.9534 22.0301C37.0975 22.2454 37.3856 22.5324 37.6017 22.6042C37.8178 22.6759 37.8178 22.6759 38.25 22.6759C38.6102 22.6759 38.6822 22.6759 38.8983 22.6042C39.1864 22.4606 39.4746 22.1736 39.6186 21.8866C39.9788 21.169 39.6186 20.3079 38.8983 19.9491C38.6822 19.8056 38.6102 19.8056 38.322 19.8056C38.0339 19.8056 37.9619 19.8056 37.8178 19.8773ZM33.928 19.9491C32.7034 20.1644 31.911 20.9537 31.5508 22.2454C31.4788 22.4606 31.4788 22.6759 31.4788 22.963V23.4653H30.9746H30.4703V24.5417V25.6181H30.9746H31.4788V28.2014V30.7847H32.8475H34.2161V28.2014V25.6181H35.1525H36.089V24.5417V23.4653H35.1525H34.2161V23.25C34.2881 22.7477 34.5042 22.3889 34.9364 22.3171C35.2246 22.2454 35.6568 22.2454 35.9449 22.3889C36.089 22.4607 36.161 22.4606 36.161 22.4606C36.161 22.4606 36.161 21.9583 36.161 21.3125V20.1644L35.9449 20.0926C35.6568 19.9491 35.2966 19.9491 34.7924 19.9491C34.4322 19.8773 34.1441 19.9491 33.928 19.9491ZM44.8771 23.3218C44.3008 23.4653 43.8686 23.7523 43.5805 24.1111L43.4364 24.3264V23.8958V23.4653H42.0678H40.6992V27.125V30.7847H42.0678H43.4364V28.7755C43.4364 27.6273 43.4364 26.6944 43.4364 26.5509C43.5085 26.2639 43.6525 25.9769 43.7966 25.8333C44.1568 25.5463 44.8051 25.6181 45.0932 25.9769C45.3093 26.2639 45.3093 26.2639 45.3093 28.5602V30.713H46.678H48.0466V28.2732C48.0466 25.6898 48.0466 25.4028 47.9025 24.9005C47.7585 24.4699 47.6144 24.1111 47.2542 23.8241C46.9661 23.537 46.678 23.3218 46.2458 23.25C45.8856 23.25 45.1653 23.25 44.8771 23.3218ZM51.7203 23.25C51.2881 23.3218 50.6398 23.537 50.2797 23.8241C49.4873 24.3981 48.9831 25.2593 48.7669 26.3356C48.6949 26.7662 48.6949 27.5556 48.7669 27.9861C48.911 28.6319 49.1271 29.2778 49.4873 29.7083C49.9915 30.3542 50.6398 30.7847 51.4322 30.9282C51.8644 31 52.5847 31 52.9449 30.8565C53.3771 30.713 53.6653 30.5694 54.0254 30.2824L54.3136 29.9954V30.3542V30.713H55.6822H57.0508V27.0532V23.3935H55.6822H54.3136V23.7523V24.1111L54.0975 24.0394C53.7373 23.6806 53.2331 23.3935 52.6568 23.3218C52.4407 23.25 51.9364 23.25 51.7203 23.25ZM62.1653 23.3218C61.661 23.3935 61.1568 23.7523 60.8686 24.1111L60.7246 24.2546V23.8241V23.3935H59.3559H57.9873V27.0532V30.713H59.3559H60.7246V28.6319C60.7246 26.4074 60.7246 26.4074 60.8686 26.0486C61.0127 25.7616 61.3008 25.6181 61.589 25.6181C61.8771 25.6181 62.0212 25.6898 62.2373 25.8333C62.5254 26.1204 62.5254 26.0486 62.5254 28.4884V30.6412H63.8941H65.2627V27.9861C65.2627 25.331 65.2627 25.331 65.1907 25.044C65.1186 24.9005 65.0466 24.6134 64.9746 24.3981C64.8305 24.1111 64.7585 24.0394 64.5424 23.8241C64.2542 23.537 64.0381 23.3935 63.75 23.25C63.2458 23.25 62.6695 23.1782 62.1653 23.3218ZM69.2966 23.3218C68.072 23.537 67.1356 24.1111 66.5593 25.1157C66.4153 25.4028 66.2712 25.7616 66.1271 26.1204C66.0551 26.4792 66.0551 26.5509 66.0551 27.125C66.0551 27.7708 66.0551 27.9861 66.2712 28.4884C66.7034 29.7083 67.7119 30.6412 69.0805 30.9282C69.2966 31 69.5127 31 70.0169 31C70.7373 31 71.0254 30.9282 71.5297 30.713L71.8178 30.5694V29.3495V28.1296L71.6017 28.2732C71.2415 28.4884 71.0254 28.5602 70.5932 28.5602C70.161 28.5602 69.9449 28.5602 69.6568 28.4167C69.3686 28.2731 69.1525 28.0579 69.0085 27.7708C68.9364 27.5556 68.9364 27.5556 68.9364 27.1968C68.9364 26.9097 68.9364 26.838 69.0085 26.6227C69.2246 26.0486 69.7288 25.7616 70.4492 25.6898C70.9534 25.6898 71.1695 25.6898 71.8898 26.0486C71.8898 26.0486 71.8898 25.4745 71.8898 24.8287V23.6088L71.6737 23.537C70.8814 23.25 70.0169 23.1782 69.2966 23.3218ZM75.4915 23.3218C73.4025 23.6806 72.1059 25.4745 72.25 27.5556C72.322 28.2732 72.5381 28.919 72.8983 29.4213C73.4025 30.2107 74.1949 30.713 75.2034 30.9282C75.6356 31 76.7881 31 77.2924 30.9282C78.0127 30.7847 78.661 30.4259 79.1653 29.9236C79.3814 29.7083 79.7415 29.206 79.7415 29.206C79.7415 29.206 79.2373 28.9907 78.589 28.7755L77.4364 28.3449L77.2924 28.4884C77.0763 28.7037 76.9322 28.7755 76.6441 28.8472C75.8517 29.0625 75.0593 28.6319 74.9153 27.9144V27.7708H77.4364H79.9576V27.125C79.9576 26.6944 79.9576 26.4074 79.8856 26.2639C79.7415 25.4028 79.3814 24.8287 78.8771 24.2546C78.3729 23.7523 77.7966 23.4653 77.0042 23.3218C76.7161 23.25 75.8517 23.25 75.4915 23.3218ZM36.8814 27.125V30.7847H38.25H39.6186V27.125V23.4653H38.25H36.8814V27.125ZM76.572 25.331C76.7881 25.4028 76.8602 25.4745 77.0763 25.6181C77.2203 25.7616 77.3644 25.9051 77.3644 26.1204V26.2639H76.1398C74.7712 26.2639 74.8432 26.2639 74.9873 25.9769C75.2034 25.4745 75.8517 25.1875 76.572 25.331ZM53.3051 25.6898C53.6653 25.7616 54.0975 26.1204 54.2415 26.4792C54.6017 27.2685 54.2415 28.2014 53.3771 28.4884C53.089 28.5602 52.6568 28.5602 52.3686 28.4884C51.9364 28.3449 51.5042 27.9861 51.4322 27.5556C51.3602 27.3403 51.3602 27.2685 51.3602 27.0532C51.3602 26.7662 51.3602 26.6944 51.5042 26.4792C51.7924 25.8333 52.5127 25.5463 53.3051 25.6898Z" fill="#6E6F83"/>
</svg>
