<svg width="50" height="50" viewBox="0 0 50 50" fill="none" xmlns="http://www.w3.org/2000/svg">
<rect width="50" height="50" fill="#F3BA2F"/>
<g clip-path="url(#clip0_171_68)">
<path d="M18.3788 22.2799L24.9995 15.6591L31.6233 22.2827L35.4756 18.4305L24.9995 7.95459L14.5268 18.4273L18.3789 22.2796L18.3788 22.2799ZM7.9541 25L11.8065 21.1471L15.6586 24.9992L11.8062 28.8516L7.9541 25ZM18.3788 27.7206L24.9995 34.341L31.6232 27.7175L35.4775 31.5677L35.4756 31.5698L24.9995 42.0455L14.5268 31.5728L14.5213 31.5673L18.3792 27.7202L18.3788 27.7206ZM34.3404 25.0017L38.1928 21.1493L42.0449 25.0014L38.1926 28.8538L34.3404 25.0017Z" fill="white"/>
<path d="M28.906 24.9982H28.9077L24.9989 21.0891L22.1098 23.9775L21.7779 24.3095L21.0933 24.9942L21.0879 24.9995L21.0933 25.0051L24.9989 28.9113L28.9079 25.0022L28.9099 25.0001L28.9063 24.9982" fill="white"/>
</g>
<defs>
<clipPath id="clip0_171_68">
<rect width="34.0909" height="34.0909" fill="white" transform="translate(7.9541 7.95459)"/>
</clipPath>
</defs>
</svg>
